<svg xmlns="http://www.w3.org/2000/svg" width="762" height="132" viewBox="0 0 762 132" font-family="'Segoe UI', Helvetica, Arial, sans-serif">
  <rect width="762" height="132" fill="transparent"/>
  <text x="10" y="15" font-size="12" font-weight="600" fill="#57606a">2023 · 243 contributions</text>
  <rect x="10" y="24" width="11" height="11" rx="2" ry="2" fill="#ebedf0"><title>2023-01-01: 0 contribution(s)</title></rect>
<rect x="10" y="38" width="11" height="11" rx="2" ry="2" fill="#ebedf0"><title>2023-01-02: 0 contribution(s)</title></rect>
<rect x="10" y="52" width="11" height="11" rx="2" ry="2" fill="#ebedf0"><title>2023-01-03: 0 contribution(s)</title></rect>
<rect x="10" y="66" width="11" height="11" rx="2" ry="2" fill="#ebedf0"><title>2023-01-04: 0 contribution(s)</title></rect>
<rect x="10" y="80" width="11" height="11" rx="2" ry="2" fill="#ebedf0"><title>2023-01-05: 0 contribution(s)</title></rect>
<rect x="10" y="94" width="11" height="11" rx="2" ry="2" fill="#ebedf0"><title>2023-01-06: 0 contribution(s)</title></rect>
<rect x="10" y="108" width="11" height="11" rx="2" ry="2" fill="#ebedf0"><title>2023-01-07: 0 contribution(s)</title></rect>
<rect x="24" y="24" width="11" height="11" rx="2" ry="2" fill="#ebedf0"><title>2023-01-08: 0 contribution(s)</title></rect>
<rect x="24" y="38" width="11" height="11" rx="2" ry="2" fill="#ebedf0"><title>2023-01-09: 0 contribution(s)</title></rect>
<rect x="24" y="52" width="11" height="11" rx="2" ry="2" fill="#ebedf0"><title>2023-01-10: 0 contribution(s)</title></rect>
<rect x="24" y="66" width="11" height="11" rx="2" ry="2" fill="#9be9a8"><title>2023-01-11: 1 contribution(s)</title></rect>
<rect x="24" y="80" width="11" height="11" rx="2" ry="2" fill="#ebedf0"><title>2023-01-12: 0 contribution(s)</title></rect>
<rect x="24" y="94" width="11" height="11" rx="2" ry="2" fill="#ebedf0"><title>2023-01-13: 0 contribution(s)</title></rect>
<rect x="24" y="108" width="11" height="11" rx="2" ry="2" fill="#ebedf0"><title>2023-01-14: 0 contribution(s)</title></rect>
<rect x="38" y="24" width="11" height="11" rx="2" ry="2" fill="#ebedf0"><title>2023-01-15: 0 contribution(s)</title></rect>
<rect x="38" y="38" width="11" height="11" rx="2" ry="2" fill="#ebedf0"><title>2023-01-16: 0 contribution(s)</title></rect>
<rect x="38" y="52" width="11" height="11" rx="2" ry="2" fill="#ebedf0"><title>2023-01-17: 0 contribution(s)</title></rect>
<rect x="38" y="66" width="11" height="11" rx="2" ry="2" fill="#ebedf0"><title>2023-01-18: 0 contribution(s)</title></rect>
<rect x="38" y="80" width="11" height="11" rx="2" ry="2" fill="#ebedf0"><title>2023-01-19: 0 contribution(s)</title></rect>
<rect x="38" y="94" width="11" height="11" rx="2" ry="2" fill="#ebedf0"><title>2023-01-20: 0 contribution(s)</title></rect>
<rect x="38" y="108" width="11" height="11" rx="2" ry="2" fill="#ebedf0"><title>2023-01-21: 0 contribution(s)</title></rect>
<rect x="52" y="24" width="11" height="11" rx="2" ry="2" fill="#ebedf0"><title>2023-01-22: 0 contribution(s)</title></rect>
<rect x="52" y="38" width="11" height="11" rx="2" ry="2" fill="#ebedf0"><title>2023-01-23: 0 contribution(s)</title></rect>
<rect x="52" y="52" width="11" height="11" rx="2" ry="2" fill="#ebedf0"><title>2023-01-24: 0 contribution(s)</title></rect>
<rect x="52" y="66" width="11" height="11" rx="2" ry="2" fill="#ebedf0"><title>2023-01-25: 0 contribution(s)</title></rect>
<rect x="52" y="80" width="11" height="11" rx="2" ry="2" fill="#ebedf0"><title>2023-01-26: 0 contribution(s)</title></rect>
<rect x="52" y="94" width="11" height="11" rx="2" ry="2" fill="#ebedf0"><title>2023-01-27: 0 contribution(s)</title></rect>
<rect x="52" y="108" width="11" height="11" rx="2" ry="2" fill="#ebedf0"><title>2023-01-28: 0 contribution(s)</title></rect>
<rect x="66" y="24" width="11" height="11" rx="2" ry="2" fill="#ebedf0"><title>2023-01-29: 0 contribution(s)</title></rect>
<rect x="66" y="38" width="11" height="11" rx="2" ry="2" fill="#ebedf0"><title>2023-01-30: 0 contribution(s)</title></rect>
<rect x="66" y="52" width="11" height="11" rx="2" ry="2" fill="#ebedf0"><title>2023-01-31: 0 contribution(s)</title></rect>
<rect x="66" y="66" width="11" height="11" rx="2" ry="2" fill="#ebedf0"><title>2023-02-01: 0 contribution(s)</title></rect>
<rect x="66" y="80" width="11" height="11" rx="2" ry="2" fill="#ebedf0"><title>2023-02-02: 0 contribution(s)</title></rect>
<rect x="66" y="94" width="11" height="11" rx="2" ry="2" fill="#ebedf0"><title>2023-02-03: 0 contribution(s)</title></rect>
<rect x="66" y="108" width="11" height="11" rx="2" ry="2" fill="#ebedf0"><title>2023-02-04: 0 contribution(s)</title></rect>
<rect x="80" y="24" width="11" height="11" rx="2" ry="2" fill="#ebedf0"><title>2023-02-05: 0 contribution(s)</title></rect>
<rect x="80" y="38" width="11" height="11" rx="2" ry="2" fill="#ebedf0"><title>2023-02-06: 0 contribution(s)</title></rect>
<rect x="80" y="52" width="11" height="11" rx="2" ry="2" fill="#ebedf0"><title>2023-02-07: 0 contribution(s)</title></rect>
<rect x="80" y="66" width="11" height="11" rx="2" ry="2" fill="#ebedf0"><title>2023-02-08: 0 contribution(s)</title></rect>
<rect x="80" y="80" width="11" height="11" rx="2" ry="2" fill="#9be9a8"><title>2023-02-09: 1 contribution(s)</title></rect>
<rect x="80" y="94" width="11" height="11" rx="2" ry="2" fill="#ebedf0"><title>2023-02-10: 0 contribution(s)</title></rect>
<rect x="80" y="108" width="11" height="11" rx="2" ry="2" fill="#9be9a8"><title>2023-02-11: 2 contribution(s)</title></rect>
<rect x="94" y="24" width="11" height="11" rx="2" ry="2" fill="#9be9a8"><title>2023-02-12: 3 contribution(s)</title></rect>
<rect x="94" y="38" width="11" height="11" rx="2" ry="2" fill="#ebedf0"><title>2023-02-13: 0 contribution(s)</title></rect>
<rect x="94" y="52" width="11" height="11" rx="2" ry="2" fill="#ebedf0"><title>2023-02-14: 0 contribution(s)</title></rect>
<rect x="94" y="66" width="11" height="11" rx="2" ry="2" fill="#ebedf0"><title>2023-02-15: 0 contribution(s)</title></rect>
<rect x="94" y="80" width="11" height="11" rx="2" ry="2" fill="#ebedf0"><title>2023-02-16: 0 contribution(s)</title></rect>
<rect x="94" y="94" width="11" height="11" rx="2" ry="2" fill="#ebedf0"><title>2023-02-17: 0 contribution(s)</title></rect>
<rect x="94" y="108" width="11" height="11" rx="2" ry="2" fill="#ebedf0"><title>2023-02-18: 0 contribution(s)</title></rect>
<rect x="108" y="24" width="11" height="11" rx="2" ry="2" fill="#ebedf0"><title>2023-02-19: 0 contribution(s)</title></rect>
<rect x="108" y="38" width="11" height="11" rx="2" ry="2" fill="#ebedf0"><title>2023-02-20: 0 contribution(s)</title></rect>
<rect x="108" y="52" width="11" height="11" rx="2" ry="2" fill="#ebedf0"><title>2023-02-21: 0 contribution(s)</title></rect>
<rect x="108" y="66" width="11" height="11" rx="2" ry="2" fill="#ebedf0"><title>2023-02-22: 0 contribution(s)</title></rect>
<rect x="108" y="80" width="11" height="11" rx="2" ry="2" fill="#ebedf0"><title>2023-02-23: 0 contribution(s)</title></rect>
<rect x="108" y="94" width="11" height="11" rx="2" ry="2" fill="#9be9a8"><title>2023-02-24: 1 contribution(s)</title></rect>
<rect x="108" y="108" width="11" height="11" rx="2" ry="2" fill="#ebedf0"><title>2023-02-25: 0 contribution(s)</title></rect>
<rect x="122" y="24" width="11" height="11" rx="2" ry="2" fill="#9be9a8"><title>2023-02-26: 5 contribution(s)</title></rect>
<rect x="122" y="38" width="11" height="11" rx="2" ry="2" fill="#ebedf0"><title>2023-02-27: 0 contribution(s)</title></rect>
<rect x="122" y="52" width="11" height="11" rx="2" ry="2" fill="#ebedf0"><title>2023-02-28: 0 contribution(s)</title></rect>
<rect x="122" y="66" width="11" height="11" rx="2" ry="2" fill="#9be9a8"><title>2023-03-01: 3 contribution(s)</title></rect>
<rect x="122" y="80" width="11" height="11" rx="2" ry="2" fill="#ebedf0"><title>2023-03-02: 0 contribution(s)</title></rect>
<rect x="122" y="94" width="11" height="11" rx="2" ry="2" fill="#ebedf0"><title>2023-03-03: 0 contribution(s)</title></rect>
<rect x="122" y="108" width="11" height="11" rx="2" ry="2" fill="#ebedf0"><title>2023-03-04: 0 contribution(s)</title></rect>
<rect x="136" y="24" width="11" height="11" rx="2" ry="2" fill="#ebedf0"><title>2023-03-05: 0 contribution(s)</title></rect>
<rect x="136" y="38" width="11" height="11" rx="2" ry="2" fill="#ebedf0"><title>2023-03-06: 0 contribution(s)</title></rect>
<rect x="136" y="52" width="11" height="11" rx="2" ry="2" fill="#ebedf0"><title>2023-03-07: 0 contribution(s)</title></rect>
<rect x="136" y="66" width="11" height="11" rx="2" ry="2" fill="#ebedf0"><title>2023-03-08: 0 contribution(s)</title></rect>
<rect x="136" y="80" width="11" height="11" rx="2" ry="2" fill="#ebedf0"><title>2023-03-09: 0 contribution(s)</title></rect>
<rect x="136" y="94" width="11" height="11" rx="2" ry="2" fill="#ebedf0"><title>2023-03-10: 0 contribution(s)</title></rect>
<rect x="136" y="108" width="11" height="11" rx="2" ry="2" fill="#ebedf0"><title>2023-03-11: 0 contribution(s)</title></rect>
<rect x="150" y="24" width="11" height="11" rx="2" ry="2" fill="#ebedf0"><title>2023-03-12: 0 contribution(s)</title></rect>
<rect x="150" y="38" width="11" height="11" rx="2" ry="2" fill="#ebedf0"><title>2023-03-13: 0 contribution(s)</title></rect>
<rect x="150" y="52" width="11" height="11" rx="2" ry="2" fill="#ebedf0"><title>2023-03-14: 0 contribution(s)</title></rect>
<rect x="150" y="66" width="11" height="11" rx="2" ry="2" fill="#ebedf0"><title>2023-03-15: 0 contribution(s)</title></rect>
<rect x="150" y="80" width="11" height="11" rx="2" ry="2" fill="#ebedf0"><title>2023-03-16: 0 contribution(s)</title></rect>
<rect x="150" y="94" width="11" height="11" rx="2" ry="2" fill="#ebedf0"><title>2023-03-17: 0 contribution(s)</title></rect>
<rect x="150" y="108" width="11" height="11" rx="2" ry="2" fill="#ebedf0"><title>2023-03-18: 0 contribution(s)</title></rect>
<rect x="164" y="24" width="11" height="11" rx="2" ry="2" fill="#ebedf0"><title>2023-03-19: 0 contribution(s)</title></rect>
<rect x="164" y="38" width="11" height="11" rx="2" ry="2" fill="#ebedf0"><title>2023-03-20: 0 contribution(s)</title></rect>
<rect x="164" y="52" width="11" height="11" rx="2" ry="2" fill="#9be9a8"><title>2023-03-21: 1 contribution(s)</title></rect>
<rect x="164" y="66" width="11" height="11" rx="2" ry="2" fill="#40c463"><title>2023-03-22: 10 contribution(s)</title></rect>
<rect x="164" y="80" width="11" height="11" rx="2" ry="2" fill="#ebedf0"><title>2023-03-23: 0 contribution(s)</title></rect>
<rect x="164" y="94" width="11" height="11" rx="2" ry="2" fill="#ebedf0"><title>2023-03-24: 0 contribution(s)</title></rect>
<rect x="164" y="108" width="11" height="11" rx="2" ry="2" fill="#ebedf0"><title>2023-03-25: 0 contribution(s)</title></rect>
<rect x="178" y="24" width="11" height="11" rx="2" ry="2" fill="#ebedf0"><title>2023-03-26: 0 contribution(s)</title></rect>
<rect x="178" y="38" width="11" height="11" rx="2" ry="2" fill="#ebedf0"><title>2023-03-27: 0 contribution(s)</title></rect>
<rect x="178" y="52" width="11" height="11" rx="2" ry="2" fill="#ebedf0"><title>2023-03-28: 0 contribution(s)</title></rect>
<rect x="178" y="66" width="11" height="11" rx="2" ry="2" fill="#ebedf0"><title>2023-03-29: 0 contribution(s)</title></rect>
<rect x="178" y="80" width="11" height="11" rx="2" ry="2" fill="#ebedf0"><title>2023-03-30: 0 contribution(s)</title></rect>
<rect x="178" y="94" width="11" height="11" rx="2" ry="2" fill="#ebedf0"><title>2023-03-31: 0 contribution(s)</title></rect>
<rect x="178" y="108" width="11" height="11" rx="2" ry="2" fill="#ebedf0"><title>2023-04-01: 0 contribution(s)</title></rect>
<rect x="192" y="24" width="11" height="11" rx="2" ry="2" fill="#9be9a8"><title>2023-04-02: 4 contribution(s)</title></rect>
<rect x="192" y="38" width="11" height="11" rx="2" ry="2" fill="#ebedf0"><title>2023-04-03: 0 contribution(s)</title></rect>
<rect x="192" y="52" width="11" height="11" rx="2" ry="2" fill="#ebedf0"><title>2023-04-04: 0 contribution(s)</title></rect>
<rect x="192" y="66" width="11" height="11" rx="2" ry="2" fill="#ebedf0"><title>2023-04-05: 0 contribution(s)</title></rect>
<rect x="192" y="80" width="11" height="11" rx="2" ry="2" fill="#ebedf0"><title>2023-04-06: 0 contribution(s)</title></rect>
<rect x="192" y="94" width="11" height="11" rx="2" ry="2" fill="#9be9a8"><title>2023-04-07: 4 contribution(s)</title></rect>
<rect x="192" y="108" width="11" height="11" rx="2" ry="2" fill="#ebedf0"><title>2023-04-08: 0 contribution(s)</title></rect>
<rect x="206" y="24" width="11" height="11" rx="2" ry="2" fill="#ebedf0"><title>2023-04-09: 0 contribution(s)</title></rect>
<rect x="206" y="38" width="11" height="11" rx="2" ry="2" fill="#ebedf0"><title>2023-04-10: 0 contribution(s)</title></rect>
<rect x="206" y="52" width="11" height="11" rx="2" ry="2" fill="#ebedf0"><title>2023-04-11: 0 contribution(s)</title></rect>
<rect x="206" y="66" width="11" height="11" rx="2" ry="2" fill="#9be9a8"><title>2023-04-12: 6 contribution(s)</title></rect>
<rect x="206" y="80" width="11" height="11" rx="2" ry="2" fill="#9be9a8"><title>2023-04-13: 3 contribution(s)</title></rect>
<rect x="206" y="94" width="11" height="11" rx="2" ry="2" fill="#9be9a8"><title>2023-04-14: 4 contribution(s)</title></rect>
<rect x="206" y="108" width="11" height="11" rx="2" ry="2" fill="#ebedf0"><title>2023-04-15: 0 contribution(s)</title></rect>
<rect x="220" y="24" width="11" height="11" rx="2" ry="2" fill="#ebedf0"><title>2023-04-16: 0 contribution(s)</title></rect>
<rect x="220" y="38" width="11" height="11" rx="2" ry="2" fill="#ebedf0"><title>2023-04-17: 0 contribution(s)</title></rect>
<rect x="220" y="52" width="11" height="11" rx="2" ry="2" fill="#ebedf0"><title>2023-04-18: 0 contribution(s)</title></rect>
<rect x="220" y="66" width="11" height="11" rx="2" ry="2" fill="#ebedf0"><title>2023-04-19: 0 contribution(s)</title></rect>
<rect x="220" y="80" width="11" height="11" rx="2" ry="2" fill="#ebedf0"><title>2023-04-20: 0 contribution(s)</title></rect>
<rect x="220" y="94" width="11" height="11" rx="2" ry="2" fill="#ebedf0"><title>2023-04-21: 0 contribution(s)</title></rect>
<rect x="220" y="108" width="11" height="11" rx="2" ry="2" fill="#ebedf0"><title>2023-04-22: 0 contribution(s)</title></rect>
<rect x="234" y="24" width="11" height="11" rx="2" ry="2" fill="#ebedf0"><title>2023-04-23: 0 contribution(s)</title></rect>
<rect x="234" y="38" width="11" height="11" rx="2" ry="2" fill="#ebedf0"><title>2023-04-24: 0 contribution(s)</title></rect>
<rect x="234" y="52" width="11" height="11" rx="2" ry="2" fill="#ebedf0"><title>2023-04-25: 0 contribution(s)</title></rect>
<rect x="234" y="66" width="11" height="11" rx="2" ry="2" fill="#ebedf0"><title>2023-04-26: 0 contribution(s)</title></rect>
<rect x="234" y="80" width="11" height="11" rx="2" ry="2" fill="#ebedf0"><title>2023-04-27: 0 contribution(s)</title></rect>
<rect x="234" y="94" width="11" height="11" rx="2" ry="2" fill="#ebedf0"><title>2023-04-28: 0 contribution(s)</title></rect>
<rect x="234" y="108" width="11" height="11" rx="2" ry="2" fill="#ebedf0"><title>2023-04-29: 0 contribution(s)</title></rect>
<rect x="248" y="24" width="11" height="11" rx="2" ry="2" fill="#ebedf0"><title>2023-04-30: 0 contribution(s)</title></rect>
<rect x="248" y="38" width="11" height="11" rx="2" ry="2" fill="#ebedf0"><title>2023-05-01: 0 contribution(s)</title></rect>
<rect x="248" y="52" width="11" height="11" rx="2" ry="2" fill="#ebedf0"><title>2023-05-02: 0 contribution(s)</title></rect>
<rect x="248" y="66" width="11" height="11" rx="2" ry="2" fill="#ebedf0"><title>2023-05-03: 0 contribution(s)</title></rect>
<rect x="248" y="80" width="11" height="11" rx="2" ry="2" fill="#ebedf0"><title>2023-05-04: 0 contribution(s)</title></rect>
<rect x="248" y="94" width="11" height="11" rx="2" ry="2" fill="#ebedf0"><title>2023-05-05: 0 contribution(s)</title></rect>
<rect x="248" y="108" width="11" height="11" rx="2" ry="2" fill="#ebedf0"><title>2023-05-06: 0 contribution(s)</title></rect>
<rect x="262" y="24" width="11" height="11" rx="2" ry="2" fill="#ebedf0"><title>2023-05-07: 0 contribution(s)</title></rect>
<rect x="262" y="38" width="11" height="11" rx="2" ry="2" fill="#ebedf0"><title>2023-05-08: 0 contribution(s)</title></rect>
<rect x="262" y="52" width="11" height="11" rx="2" ry="2" fill="#ebedf0"><title>2023-05-09: 0 contribution(s)</title></rect>
<rect x="262" y="66" width="11" height="11" rx="2" ry="2" fill="#ebedf0"><title>2023-05-10: 0 contribution(s)</title></rect>
<rect x="262" y="80" width="11" height="11" rx="2" ry="2" fill="#ebedf0"><title>2023-05-11: 0 contribution(s)</title></rect>
<rect x="262" y="94" width="11" height="11" rx="2" ry="2" fill="#ebedf0"><title>2023-05-12: 0 contribution(s)</title></rect>
<rect x="262" y="108" width="11" height="11" rx="2" ry="2" fill="#ebedf0"><title>2023-05-13: 0 contribution(s)</title></rect>
<rect x="276" y="24" width="11" height="11" rx="2" ry="2" fill="#ebedf0"><title>2023-05-14: 0 contribution(s)</title></rect>
<rect x="276" y="38" width="11" height="11" rx="2" ry="2" fill="#ebedf0"><title>2023-05-15: 0 contribution(s)</title></rect>
<rect x="276" y="52" width="11" height="11" rx="2" ry="2" fill="#ebedf0"><title>2023-05-16: 0 contribution(s)</title></rect>
<rect x="276" y="66" width="11" height="11" rx="2" ry="2" fill="#ebedf0"><title>2023-05-17: 0 contribution(s)</title></rect>
<rect x="276" y="80" width="11" height="11" rx="2" ry="2" fill="#ebedf0"><title>2023-05-18: 0 contribution(s)</title></rect>
<rect x="276" y="94" width="11" height="11" rx="2" ry="2" fill="#ebedf0"><title>2023-05-19: 0 contribution(s)</title></rect>
<rect x="276" y="108" width="11" height="11" rx="2" ry="2" fill="#ebedf0"><title>2023-05-20: 0 contribution(s)</title></rect>
<rect x="290" y="24" width="11" height="11" rx="2" ry="2" fill="#ebedf0"><title>2023-05-21: 0 contribution(s)</title></rect>
<rect x="290" y="38" width="11" height="11" rx="2" ry="2" fill="#ebedf0"><title>2023-05-22: 0 contribution(s)</title></rect>
<rect x="290" y="52" width="11" height="11" rx="2" ry="2" fill="#ebedf0"><title>2023-05-23: 0 contribution(s)</title></rect>
<rect x="290" y="66" width="11" height="11" rx="2" ry="2" fill="#ebedf0"><title>2023-05-24: 0 contribution(s)</title></rect>
<rect x="290" y="80" width="11" height="11" rx="2" ry="2" fill="#ebedf0"><title>2023-05-25: 0 contribution(s)</title></rect>
<rect x="290" y="94" width="11" height="11" rx="2" ry="2" fill="#ebedf0"><title>2023-05-26: 0 contribution(s)</title></rect>
<rect x="290" y="108" width="11" height="11" rx="2" ry="2" fill="#ebedf0"><title>2023-05-27: 0 contribution(s)</title></rect>
<rect x="304" y="24" width="11" height="11" rx="2" ry="2" fill="#ebedf0"><title>2023-05-28: 0 contribution(s)</title></rect>
<rect x="304" y="38" width="11" height="11" rx="2" ry="2" fill="#ebedf0"><title>2023-05-29: 0 contribution(s)</title></rect>
<rect x="304" y="52" width="11" height="11" rx="2" ry="2" fill="#ebedf0"><title>2023-05-30: 0 contribution(s)</title></rect>
<rect x="304" y="66" width="11" height="11" rx="2" ry="2" fill="#ebedf0"><title>2023-05-31: 0 contribution(s)</title></rect>
<rect x="304" y="80" width="11" height="11" rx="2" ry="2" fill="#ebedf0"><title>2023-06-01: 0 contribution(s)</title></rect>
<rect x="304" y="94" width="11" height="11" rx="2" ry="2" fill="#ebedf0"><title>2023-06-02: 0 contribution(s)</title></rect>
<rect x="304" y="108" width="11" height="11" rx="2" ry="2" fill="#ebedf0"><title>2023-06-03: 0 contribution(s)</title></rect>
<rect x="318" y="24" width="11" height="11" rx="2" ry="2" fill="#ebedf0"><title>2023-06-04: 0 contribution(s)</title></rect>
<rect x="318" y="38" width="11" height="11" rx="2" ry="2" fill="#ebedf0"><title>2023-06-05: 0 contribution(s)</title></rect>
<rect x="318" y="52" width="11" height="11" rx="2" ry="2" fill="#ebedf0"><title>2023-06-06: 0 contribution(s)</title></rect>
<rect x="318" y="66" width="11" height="11" rx="2" ry="2" fill="#ebedf0"><title>2023-06-07: 0 contribution(s)</title></rect>
<rect x="318" y="80" width="11" height="11" rx="2" ry="2" fill="#ebedf0"><title>2023-06-08: 0 contribution(s)</title></rect>
<rect x="318" y="94" width="11" height="11" rx="2" ry="2" fill="#ebedf0"><title>2023-06-09: 0 contribution(s)</title></rect>
<rect x="318" y="108" width="11" height="11" rx="2" ry="2" fill="#ebedf0"><title>2023-06-10: 0 contribution(s)</title></rect>
<rect x="332" y="24" width="11" height="11" rx="2" ry="2" fill="#ebedf0"><title>2023-06-11: 0 contribution(s)</title></rect>
<rect x="332" y="38" width="11" height="11" rx="2" ry="2" fill="#ebedf0"><title>2023-06-12: 0 contribution(s)</title></rect>
<rect x="332" y="52" width="11" height="11" rx="2" ry="2" fill="#ebedf0"><title>2023-06-13: 0 contribution(s)</title></rect>
<rect x="332" y="66" width="11" height="11" rx="2" ry="2" fill="#ebedf0"><title>2023-06-14: 0 contribution(s)</title></rect>
<rect x="332" y="80" width="11" height="11" rx="2" ry="2" fill="#ebedf0"><title>2023-06-15: 0 contribution(s)</title></rect>
<rect x="332" y="94" width="11" height="11" rx="2" ry="2" fill="#ebedf0"><title>2023-06-16: 0 contribution(s)</title></rect>
<rect x="332" y="108" width="11" height="11" rx="2" ry="2" fill="#ebedf0"><title>2023-06-17: 0 contribution(s)</title></rect>
<rect x="346" y="24" width="11" height="11" rx="2" ry="2" fill="#ebedf0"><title>2023-06-18: 0 contribution(s)</title></rect>
<rect x="346" y="38" width="11" height="11" rx="2" ry="2" fill="#ebedf0"><title>2023-06-19: 0 contribution(s)</title></rect>
<rect x="346" y="52" width="11" height="11" rx="2" ry="2" fill="#ebedf0"><title>2023-06-20: 0 contribution(s)</title></rect>
<rect x="346" y="66" width="11" height="11" rx="2" ry="2" fill="#ebedf0"><title>2023-06-21: 0 contribution(s)</title></rect>
<rect x="346" y="80" width="11" height="11" rx="2" ry="2" fill="#9be9a8"><title>2023-06-22: 5 contribution(s)</title></rect>
<rect x="346" y="94" width="11" height="11" rx="2" ry="2" fill="#ebedf0"><title>2023-06-23: 0 contribution(s)</title></rect>
<rect x="346" y="108" width="11" height="11" rx="2" ry="2" fill="#ebedf0"><title>2023-06-24: 0 contribution(s)</title></rect>
<rect x="360" y="24" width="11" height="11" rx="2" ry="2" fill="#ebedf0"><title>2023-06-25: 0 contribution(s)</title></rect>
<rect x="360" y="38" width="11" height="11" rx="2" ry="2" fill="#40c463"><title>2023-06-26: 10 contribution(s)</title></rect>
<rect x="360" y="52" width="11" height="11" rx="2" ry="2" fill="#ebedf0"><title>2023-06-27: 0 contribution(s)</title></rect>
<rect x="360" y="66" width="11" height="11" rx="2" ry="2" fill="#9be9a8"><title>2023-06-28: 2 contribution(s)</title></rect>
<rect x="360" y="80" width="11" height="11" rx="2" ry="2" fill="#9be9a8"><title>2023-06-29: 1 contribution(s)</title></rect>
<rect x="360" y="94" width="11" height="11" rx="2" ry="2" fill="#ebedf0"><title>2023-06-30: 0 contribution(s)</title></rect>
<rect x="360" y="108" width="11" height="11" rx="2" ry="2" fill="#ebedf0"><title>2023-07-01: 0 contribution(s)</title></rect>
<rect x="374" y="24" width="11" height="11" rx="2" ry="2" fill="#ebedf0"><title>2023-07-02: 0 contribution(s)</title></rect>
<rect x="374" y="38" width="11" height="11" rx="2" ry="2" fill="#ebedf0"><title>2023-07-03: 0 contribution(s)</title></rect>
<rect x="374" y="52" width="11" height="11" rx="2" ry="2" fill="#ebedf0"><title>2023-07-04: 0 contribution(s)</title></rect>
<rect x="374" y="66" width="11" height="11" rx="2" ry="2" fill="#ebedf0"><title>2023-07-05: 0 contribution(s)</title></rect>
<rect x="374" y="80" width="11" height="11" rx="2" ry="2" fill="#ebedf0"><title>2023-07-06: 0 contribution(s)</title></rect>
<rect x="374" y="94" width="11" height="11" rx="2" ry="2" fill="#ebedf0"><title>2023-07-07: 0 contribution(s)</title></rect>
<rect x="374" y="108" width="11" height="11" rx="2" ry="2" fill="#ebedf0"><title>2023-07-08: 0 contribution(s)</title></rect>
<rect x="388" y="24" width="11" height="11" rx="2" ry="2" fill="#ebedf0"><title>2023-07-09: 0 contribution(s)</title></rect>
<rect x="388" y="38" width="11" height="11" rx="2" ry="2" fill="#ebedf0"><title>2023-07-10: 0 contribution(s)</title></rect>
<rect x="388" y="52" width="11" height="11" rx="2" ry="2" fill="#9be9a8"><title>2023-07-11: 5 contribution(s)</title></rect>
<rect x="388" y="66" width="11" height="11" rx="2" ry="2" fill="#9be9a8"><title>2023-07-12: 1 contribution(s)</title></rect>
<rect x="388" y="80" width="11" height="11" rx="2" ry="2" fill="#ebedf0"><title>2023-07-13: 0 contribution(s)</title></rect>
<rect x="388" y="94" width="11" height="11" rx="2" ry="2" fill="#ebedf0"><title>2023-07-14: 0 contribution(s)</title></rect>
<rect x="388" y="108" width="11" height="11" rx="2" ry="2" fill="#ebedf0"><title>2023-07-15: 0 contribution(s)</title></rect>
<rect x="402" y="24" width="11" height="11" rx="2" ry="2" fill="#ebedf0"><title>2023-07-16: 0 contribution(s)</title></rect>
<rect x="402" y="38" width="11" height="11" rx="2" ry="2" fill="#ebedf0"><title>2023-07-17: 0 contribution(s)</title></rect>
<rect x="402" y="52" width="11" height="11" rx="2" ry="2" fill="#9be9a8"><title>2023-07-18: 3 contribution(s)</title></rect>
<rect x="402" y="66" width="11" height="11" rx="2" ry="2" fill="#ebedf0"><title>2023-07-19: 0 contribution(s)</title></rect>
<rect x="402" y="80" width="11" height="11" rx="2" ry="2" fill="#9be9a8"><title>2023-07-20: 1 contribution(s)</title></rect>
<rect x="402" y="94" width="11" height="11" rx="2" ry="2" fill="#ebedf0"><title>2023-07-21: 0 contribution(s)</title></rect>
<rect x="402" y="108" width="11" height="11" rx="2" ry="2" fill="#ebedf0"><title>2023-07-22: 0 contribution(s)</title></rect>
<rect x="416" y="24" width="11" height="11" rx="2" ry="2" fill="#ebedf0"><title>2023-07-23: 0 contribution(s)</title></rect>
<rect x="416" y="38" width="11" height="11" rx="2" ry="2" fill="#ebedf0"><title>2023-07-24: 0 contribution(s)</title></rect>
<rect x="416" y="52" width="11" height="11" rx="2" ry="2" fill="#ebedf0"><title>2023-07-25: 0 contribution(s)</title></rect>
<rect x="416" y="66" width="11" height="11" rx="2" ry="2" fill="#ebedf0"><title>2023-07-26: 0 contribution(s)</title></rect>
<rect x="416" y="80" width="11" height="11" rx="2" ry="2" fill="#ebedf0"><title>2023-07-27: 0 contribution(s)</title></rect>
<rect x="416" y="94" width="11" height="11" rx="2" ry="2" fill="#ebedf0"><title>2023-07-28: 0 contribution(s)</title></rect>
<rect x="416" y="108" width="11" height="11" rx="2" ry="2" fill="#ebedf0"><title>2023-07-29: 0 contribution(s)</title></rect>
<rect x="430" y="24" width="11" height="11" rx="2" ry="2" fill="#ebedf0"><title>2023-07-30: 0 contribution(s)</title></rect>
<rect x="430" y="38" width="11" height="11" rx="2" ry="2" fill="#ebedf0"><title>2023-07-31: 0 contribution(s)</title></rect>
<rect x="430" y="52" width="11" height="11" rx="2" ry="2" fill="#ebedf0"><title>2023-08-01: 0 contribution(s)</title></rect>
<rect x="430" y="66" width="11" height="11" rx="2" ry="2" fill="#ebedf0"><title>2023-08-02: 0 contribution(s)</title></rect>
<rect x="430" y="80" width="11" height="11" rx="2" ry="2" fill="#ebedf0"><title>2023-08-03: 0 contribution(s)</title></rect>
<rect x="430" y="94" width="11" height="11" rx="2" ry="2" fill="#ebedf0"><title>2023-08-04: 0 contribution(s)</title></rect>
<rect x="430" y="108" width="11" height="11" rx="2" ry="2" fill="#ebedf0"><title>2023-08-05: 0 contribution(s)</title></rect>
<rect x="444" y="24" width="11" height="11" rx="2" ry="2" fill="#ebedf0"><title>2023-08-06: 0 contribution(s)</title></rect>
<rect x="444" y="38" width="11" height="11" rx="2" ry="2" fill="#ebedf0"><title>2023-08-07: 0 contribution(s)</title></rect>
<rect x="444" y="52" width="11" height="11" rx="2" ry="2" fill="#ebedf0"><title>2023-08-08: 0 contribution(s)</title></rect>
<rect x="444" y="66" width="11" height="11" rx="2" ry="2" fill="#ebedf0"><title>2023-08-09: 0 contribution(s)</title></rect>
<rect x="444" y="80" width="11" height="11" rx="2" ry="2" fill="#ebedf0"><title>2023-08-10: 0 contribution(s)</title></rect>
<rect x="444" y="94" width="11" height="11" rx="2" ry="2" fill="#ebedf0"><title>2023-08-11: 0 contribution(s)</title></rect>
<rect x="444" y="108" width="11" height="11" rx="2" ry="2" fill="#ebedf0"><title>2023-08-12: 0 contribution(s)</title></rect>
<rect x="458" y="24" width="11" height="11" rx="2" ry="2" fill="#ebedf0"><title>2023-08-13: 0 contribution(s)</title></rect>
<rect x="458" y="38" width="11" height="11" rx="2" ry="2" fill="#ebedf0"><title>2023-08-14: 0 contribution(s)</title></rect>
<rect x="458" y="52" width="11" height="11" rx="2" ry="2" fill="#ebedf0"><title>2023-08-15: 0 contribution(s)</title></rect>
<rect x="458" y="66" width="11" height="11" rx="2" ry="2" fill="#ebedf0"><title>2023-08-16: 0 contribution(s)</title></rect>
<rect x="458" y="80" width="11" height="11" rx="2" ry="2" fill="#ebedf0"><title>2023-08-17: 0 contribution(s)</title></rect>
<rect x="458" y="94" width="11" height="11" rx="2" ry="2" fill="#ebedf0"><title>2023-08-18: 0 contribution(s)</title></rect>
<rect x="458" y="108" width="11" height="11" rx="2" ry="2" fill="#ebedf0"><title>2023-08-19: 0 contribution(s)</title></rect>
<rect x="472" y="24" width="11" height="11" rx="2" ry="2" fill="#ebedf0"><title>2023-08-20: 0 contribution(s)</title></rect>
<rect x="472" y="38" width="11" height="11" rx="2" ry="2" fill="#ebedf0"><title>2023-08-21: 0 contribution(s)</title></rect>
<rect x="472" y="52" width="11" height="11" rx="2" ry="2" fill="#9be9a8"><title>2023-08-22: 2 contribution(s)</title></rect>
<rect x="472" y="66" width="11" height="11" rx="2" ry="2" fill="#9be9a8"><title>2023-08-23: 5 contribution(s)</title></rect>
<rect x="472" y="80" width="11" height="11" rx="2" ry="2" fill="#ebedf0"><title>2023-08-24: 0 contribution(s)</title></rect>
<rect x="472" y="94" width="11" height="11" rx="2" ry="2" fill="#ebedf0"><title>2023-08-25: 0 contribution(s)</title></rect>
<rect x="472" y="108" width="11" height="11" rx="2" ry="2" fill="#ebedf0"><title>2023-08-26: 0 contribution(s)</title></rect>
<rect x="486" y="24" width="11" height="11" rx="2" ry="2" fill="#ebedf0"><title>2023-08-27: 0 contribution(s)</title></rect>
<rect x="486" y="38" width="11" height="11" rx="2" ry="2" fill="#ebedf0"><title>2023-08-28: 0 contribution(s)</title></rect>
<rect x="486" y="52" width="11" height="11" rx="2" ry="2" fill="#ebedf0"><title>2023-08-29: 0 contribution(s)</title></rect>
<rect x="486" y="66" width="11" height="11" rx="2" ry="2" fill="#ebedf0"><title>2023-08-30: 0 contribution(s)</title></rect>
<rect x="486" y="80" width="11" height="11" rx="2" ry="2" fill="#ebedf0"><title>2023-08-31: 0 contribution(s)</title></rect>
<rect x="486" y="94" width="11" height="11" rx="2" ry="2" fill="#ebedf0"><title>2023-09-01: 0 contribution(s)</title></rect>
<rect x="486" y="108" width="11" height="11" rx="2" ry="2" fill="#ebedf0"><title>2023-09-02: 0 contribution(s)</title></rect>
<rect x="500" y="24" width="11" height="11" rx="2" ry="2" fill="#ebedf0"><title>2023-09-03: 0 contribution(s)</title></rect>
<rect x="500" y="38" width="11" height="11" rx="2" ry="2" fill="#ebedf0"><title>2023-09-04: 0 contribution(s)</title></rect>
<rect x="500" y="52" width="11" height="11" rx="2" ry="2" fill="#ebedf0"><title>2023-09-05: 0 contribution(s)</title></rect>
<rect x="500" y="66" width="11" height="11" rx="2" ry="2" fill="#ebedf0"><title>2023-09-06: 0 contribution(s)</title></rect>
<rect x="500" y="80" width="11" height="11" rx="2" ry="2" fill="#ebedf0"><title>2023-09-07: 0 contribution(s)</title></rect>
<rect x="500" y="94" width="11" height="11" rx="2" ry="2" fill="#ebedf0"><title>2023-09-08: 0 contribution(s)</title></rect>
<rect x="500" y="108" width="11" height="11" rx="2" ry="2" fill="#ebedf0"><title>2023-09-09: 0 contribution(s)</title></rect>
<rect x="514" y="24" width="11" height="11" rx="2" ry="2" fill="#ebedf0"><title>2023-09-10: 0 contribution(s)</title></rect>
<rect x="514" y="38" width="11" height="11" rx="2" ry="2" fill="#ebedf0"><title>2023-09-11: 0 contribution(s)</title></rect>
<rect x="514" y="52" width="11" height="11" rx="2" ry="2" fill="#ebedf0"><title>2023-09-12: 0 contribution(s)</title></rect>
<rect x="514" y="66" width="11" height="11" rx="2" ry="2" fill="#ebedf0"><title>2023-09-13: 0 contribution(s)</title></rect>
<rect x="514" y="80" width="11" height="11" rx="2" ry="2" fill="#ebedf0"><title>2023-09-14: 0 contribution(s)</title></rect>
<rect x="514" y="94" width="11" height="11" rx="2" ry="2" fill="#ebedf0"><title>2023-09-15: 0 contribution(s)</title></rect>
<rect x="514" y="108" width="11" height="11" rx="2" ry="2" fill="#ebedf0"><title>2023-09-16: 0 contribution(s)</title></rect>
<rect x="528" y="24" width="11" height="11" rx="2" ry="2" fill="#ebedf0"><title>2023-09-17: 0 contribution(s)</title></rect>
<rect x="528" y="38" width="11" height="11" rx="2" ry="2" fill="#ebedf0"><title>2023-09-18: 0 contribution(s)</title></rect>
<rect x="528" y="52" width="11" height="11" rx="2" ry="2" fill="#ebedf0"><title>2023-09-19: 0 contribution(s)</title></rect>
<rect x="528" y="66" width="11" height="11" rx="2" ry="2" fill="#ebedf0"><title>2023-09-20: 0 contribution(s)</title></rect>
<rect x="528" y="80" width="11" height="11" rx="2" ry="2" fill="#ebedf0"><title>2023-09-21: 0 contribution(s)</title></rect>
<rect x="528" y="94" width="11" height="11" rx="2" ry="2" fill="#ebedf0"><title>2023-09-22: 0 contribution(s)</title></rect>
<rect x="528" y="108" width="11" height="11" rx="2" ry="2" fill="#ebedf0"><title>2023-09-23: 0 contribution(s)</title></rect>
<rect x="542" y="24" width="11" height="11" rx="2" ry="2" fill="#ebedf0"><title>2023-09-24: 0 contribution(s)</title></rect>
<rect x="542" y="38" width="11" height="11" rx="2" ry="2" fill="#ebedf0"><title>2023-09-25: 0 contribution(s)</title></rect>
<rect x="542" y="52" width="11" height="11" rx="2" ry="2" fill="#ebedf0"><title>2023-09-26: 0 contribution(s)</title></rect>
<rect x="542" y="66" width="11" height="11" rx="2" ry="2" fill="#ebedf0"><title>2023-09-27: 0 contribution(s)</title></rect>
<rect x="542" y="80" width="11" height="11" rx="2" ry="2" fill="#ebedf0"><title>2023-09-28: 0 contribution(s)</title></rect>
<rect x="542" y="94" width="11" height="11" rx="2" ry="2" fill="#ebedf0"><title>2023-09-29: 0 contribution(s)</title></rect>
<rect x="542" y="108" width="11" height="11" rx="2" ry="2" fill="#9be9a8"><title>2023-09-30: 1 contribution(s)</title></rect>
<rect x="556" y="24" width="11" height="11" rx="2" ry="2" fill="#ebedf0"><title>2023-10-01: 0 contribution(s)</title></rect>
<rect x="556" y="38" width="11" height="11" rx="2" ry="2" fill="#ebedf0"><title>2023-10-02: 0 contribution(s)</title></rect>
<rect x="556" y="52" width="11" height="11" rx="2" ry="2" fill="#ebedf0"><title>2023-10-03: 0 contribution(s)</title></rect>
<rect x="556" y="66" width="11" height="11" rx="2" ry="2" fill="#ebedf0"><title>2023-10-04: 0 contribution(s)</title></rect>
<rect x="556" y="80" width="11" height="11" rx="2" ry="2" fill="#ebedf0"><title>2023-10-05: 0 contribution(s)</title></rect>
<rect x="556" y="94" width="11" height="11" rx="2" ry="2" fill="#ebedf0"><title>2023-10-06: 0 contribution(s)</title></rect>
<rect x="556" y="108" width="11" height="11" rx="2" ry="2" fill="#ebedf0"><title>2023-10-07: 0 contribution(s)</title></rect>
<rect x="570" y="24" width="11" height="11" rx="2" ry="2" fill="#ebedf0"><title>2023-10-08: 0 contribution(s)</title></rect>
<rect x="570" y="38" width="11" height="11" rx="2" ry="2" fill="#40c463"><title>2023-10-09: 9 contribution(s)</title></rect>
<rect x="570" y="52" width="11" height="11" rx="2" ry="2" fill="#40c463"><title>2023-10-10: 9 contribution(s)</title></rect>
<rect x="570" y="66" width="11" height="11" rx="2" ry="2" fill="#ebedf0"><title>2023-10-11: 0 contribution(s)</title></rect>
<rect x="570" y="80" width="11" height="11" rx="2" ry="2" fill="#ebedf0"><title>2023-10-12: 0 contribution(s)</title></rect>
<rect x="570" y="94" width="11" height="11" rx="2" ry="2" fill="#ebedf0"><title>2023-10-13: 0 contribution(s)</title></rect>
<rect x="570" y="108" width="11" height="11" rx="2" ry="2" fill="#ebedf0"><title>2023-10-14: 0 contribution(s)</title></rect>
<rect x="584" y="24" width="11" height="11" rx="2" ry="2" fill="#ebedf0"><title>2023-10-15: 0 contribution(s)</title></rect>
<rect x="584" y="38" width="11" height="11" rx="2" ry="2" fill="#ebedf0"><title>2023-10-16: 0 contribution(s)</title></rect>
<rect x="584" y="52" width="11" height="11" rx="2" ry="2" fill="#9be9a8"><title>2023-10-17: 5 contribution(s)</title></rect>
<rect x="584" y="66" width="11" height="11" rx="2" ry="2" fill="#ebedf0"><title>2023-10-18: 0 contribution(s)</title></rect>
<rect x="584" y="80" width="11" height="11" rx="2" ry="2" fill="#ebedf0"><title>2023-10-19: 0 contribution(s)</title></rect>
<rect x="584" y="94" width="11" height="11" rx="2" ry="2" fill="#ebedf0"><title>2023-10-20: 0 contribution(s)</title></rect>
<rect x="584" y="108" width="11" height="11" rx="2" ry="2" fill="#ebedf0"><title>2023-10-21: 0 contribution(s)</title></rect>
<rect x="598" y="24" width="11" height="11" rx="2" ry="2" fill="#40c463"><title>2023-10-22: 10 contribution(s)</title></rect>
<rect x="598" y="38" width="11" height="11" rx="2" ry="2" fill="#216e39"><title>2023-10-23: 28 contribution(s)</title></rect>
<rect x="598" y="52" width="11" height="11" rx="2" ry="2" fill="#30a14e"><title>2023-10-24: 18 contribution(s)</title></rect>
<rect x="598" y="66" width="11" height="11" rx="2" ry="2" fill="#ebedf0"><title>2023-10-25: 0 contribution(s)</title></rect>
<rect x="598" y="80" width="11" height="11" rx="2" ry="2" fill="#ebedf0"><title>2023-10-26: 0 contribution(s)</title></rect>
<rect x="598" y="94" width="11" height="11" rx="2" ry="2" fill="#ebedf0"><title>2023-10-27: 0 contribution(s)</title></rect>
<rect x="598" y="108" width="11" height="11" rx="2" ry="2" fill="#40c463"><title>2023-10-28: 10 contribution(s)</title></rect>
<rect x="612" y="24" width="11" height="11" rx="2" ry="2" fill="#ebedf0"><title>2023-10-29: 0 contribution(s)</title></rect>
<rect x="612" y="38" width="11" height="11" rx="2" ry="2" fill="#40c463"><title>2023-10-30: 10 contribution(s)</title></rect>
<rect x="612" y="52" width="11" height="11" rx="2" ry="2" fill="#ebedf0"><title>2023-10-31: 0 contribution(s)</title></rect>
<rect x="612" y="66" width="11" height="11" rx="2" ry="2" fill="#9be9a8"><title>2023-11-01: 4 contribution(s)</title></rect>
<rect x="612" y="80" width="11" height="11" rx="2" ry="2" fill="#9be9a8"><title>2023-11-02: 7 contribution(s)</title></rect>
<rect x="612" y="94" width="11" height="11" rx="2" ry="2" fill="#ebedf0"><title>2023-11-03: 0 contribution(s)</title></rect>
<rect x="612" y="108" width="11" height="11" rx="2" ry="2" fill="#9be9a8"><title>2023-11-04: 5 contribution(s)</title></rect>
<rect x="626" y="24" width="11" height="11" rx="2" ry="2" fill="#ebedf0"><title>2023-11-05: 0 contribution(s)</title></rect>
<rect x="626" y="38" width="11" height="11" rx="2" ry="2" fill="#ebedf0"><title>2023-11-06: 0 contribution(s)</title></rect>
<rect x="626" y="52" width="11" height="11" rx="2" ry="2" fill="#9be9a8"><title>2023-11-07: 5 contribution(s)</title></rect>
<rect x="626" y="66" width="11" height="11" rx="2" ry="2" fill="#ebedf0"><title>2023-11-08: 0 contribution(s)</title></rect>
<rect x="626" y="80" width="11" height="11" rx="2" ry="2" fill="#9be9a8"><title>2023-11-09: 2 contribution(s)</title></rect>
<rect x="626" y="94" width="11" height="11" rx="2" ry="2" fill="#9be9a8"><title>2023-11-10: 4 contribution(s)</title></rect>
<rect x="626" y="108" width="11" height="11" rx="2" ry="2" fill="#9be9a8"><title>2023-11-11: 6 contribution(s)</title></rect>
<rect x="640" y="24" width="11" height="11" rx="2" ry="2" fill="#9be9a8"><title>2023-11-12: 6 contribution(s)</title></rect>
<rect x="640" y="38" width="11" height="11" rx="2" ry="2" fill="#ebedf0"><title>2023-11-13: 0 contribution(s)</title></rect>
<rect x="640" y="52" width="11" height="11" rx="2" ry="2" fill="#ebedf0"><title>2023-11-14: 0 contribution(s)</title></rect>
<rect x="640" y="66" width="11" height="11" rx="2" ry="2" fill="#ebedf0"><title>2023-11-15: 0 contribution(s)</title></rect>
<rect x="640" y="80" width="11" height="11" rx="2" ry="2" fill="#ebedf0"><title>2023-11-16: 0 contribution(s)</title></rect>
<rect x="640" y="94" width="11" height="11" rx="2" ry="2" fill="#ebedf0"><title>2023-11-17: 0 contribution(s)</title></rect>
<rect x="640" y="108" width="11" height="11" rx="2" ry="2" fill="#9be9a8"><title>2023-11-18: 3 contribution(s)</title></rect>
<rect x="654" y="24" width="11" height="11" rx="2" ry="2" fill="#9be9a8"><title>2023-11-19: 3 contribution(s)</title></rect>
<rect x="654" y="38" width="11" height="11" rx="2" ry="2" fill="#40c463"><title>2023-11-20: 9 contribution(s)</title></rect>
<rect x="654" y="52" width="11" height="11" rx="2" ry="2" fill="#ebedf0"><title>2023-11-21: 0 contribution(s)</title></rect>
<rect x="654" y="66" width="11" height="11" rx="2" ry="2" fill="#9be9a8"><title>2023-11-22: 5 contribution(s)</title></rect>
<rect x="654" y="80" width="11" height="11" rx="2" ry="2" fill="#ebedf0"><title>2023-11-23: 0 contribution(s)</title></rect>
<rect x="654" y="94" width="11" height="11" rx="2" ry="2" fill="#ebedf0"><title>2023-11-24: 0 contribution(s)</title></rect>
<rect x="654" y="108" width="11" height="11" rx="2" ry="2" fill="#ebedf0"><title>2023-11-25: 0 contribution(s)</title></rect>
<rect x="668" y="24" width="11" height="11" rx="2" ry="2" fill="#ebedf0"><title>2023-11-26: 0 contribution(s)</title></rect>
<rect x="668" y="38" width="11" height="11" rx="2" ry="2" fill="#ebedf0"><title>2023-11-27: 0 contribution(s)</title></rect>
<rect x="668" y="52" width="11" height="11" rx="2" ry="2" fill="#ebedf0"><title>2023-11-28: 0 contribution(s)</title></rect>
<rect x="668" y="66" width="11" height="11" rx="2" ry="2" fill="#ebedf0"><title>2023-11-29: 0 contribution(s)</title></rect>
<rect x="668" y="80" width="11" height="11" rx="2" ry="2" fill="#ebedf0"><title>2023-11-30: 0 contribution(s)</title></rect>
<rect x="668" y="94" width="11" height="11" rx="2" ry="2" fill="#ebedf0"><title>2023-12-01: 0 contribution(s)</title></rect>
<rect x="668" y="108" width="11" height="11" rx="2" ry="2" fill="#ebedf0"><title>2023-12-02: 0 contribution(s)</title></rect>
<rect x="682" y="24" width="11" height="11" rx="2" ry="2" fill="#ebedf0"><title>2023-12-03: 0 contribution(s)</title></rect>
<rect x="682" y="38" width="11" height="11" rx="2" ry="2" fill="#ebedf0"><title>2023-12-04: 0 contribution(s)</title></rect>
<rect x="682" y="52" width="11" height="11" rx="2" ry="2" fill="#ebedf0"><title>2023-12-05: 0 contribution(s)</title></rect>
<rect x="682" y="66" width="11" height="11" rx="2" ry="2" fill="#ebedf0"><title>2023-12-06: 0 contribution(s)</title></rect>
<rect x="682" y="80" width="11" height="11" rx="2" ry="2" fill="#ebedf0"><title>2023-12-07: 0 contribution(s)</title></rect>
<rect x="682" y="94" width="11" height="11" rx="2" ry="2" fill="#ebedf0"><title>2023-12-08: 0 contribution(s)</title></rect>
<rect x="682" y="108" width="11" height="11" rx="2" ry="2" fill="#ebedf0"><title>2023-12-09: 0 contribution(s)</title></rect>
<rect x="696" y="24" width="11" height="11" rx="2" ry="2" fill="#ebedf0"><title>2023-12-10: 0 contribution(s)</title></rect>
<rect x="696" y="38" width="11" height="11" rx="2" ry="2" fill="#ebedf0"><title>2023-12-11: 0 contribution(s)</title></rect>
<rect x="696" y="52" width="11" height="11" rx="2" ry="2" fill="#ebedf0"><title>2023-12-12: 0 contribution(s)</title></rect>
<rect x="696" y="66" width="11" height="11" rx="2" ry="2" fill="#ebedf0"><title>2023-12-13: 0 contribution(s)</title></rect>
<rect x="696" y="80" width="11" height="11" rx="2" ry="2" fill="#ebedf0"><title>2023-12-14: 0 contribution(s)</title></rect>
<rect x="696" y="94" width="11" height="11" rx="2" ry="2" fill="#ebedf0"><title>2023-12-15: 0 contribution(s)</title></rect>
<rect x="696" y="108" width="11" height="11" rx="2" ry="2" fill="#ebedf0"><title>2023-12-16: 0 contribution(s)</title></rect>
<rect x="710" y="24" width="11" height="11" rx="2" ry="2" fill="#ebedf0"><title>2023-12-17: 0 contribution(s)</title></rect>
<rect x="710" y="38" width="11" height="11" rx="2" ry="2" fill="#ebedf0"><title>2023-12-18: 0 contribution(s)</title></rect>
<rect x="710" y="52" width="11" height="11" rx="2" ry="2" fill="#ebedf0"><title>2023-12-19: 0 contribution(s)</title></rect>
<rect x="710" y="66" width="11" height="11" rx="2" ry="2" fill="#ebedf0"><title>2023-12-20: 0 contribution(s)</title></rect>
<rect x="710" y="80" width="11" height="11" rx="2" ry="2" fill="#ebedf0"><title>2023-12-21: 0 contribution(s)</title></rect>
<rect x="710" y="94" width="11" height="11" rx="2" ry="2" fill="#ebedf0"><title>2023-12-22: 0 contribution(s)</title></rect>
<rect x="710" y="108" width="11" height="11" rx="2" ry="2" fill="#ebedf0"><title>2023-12-23: 0 contribution(s)</title></rect>
<rect x="724" y="24" width="11" height="11" rx="2" ry="2" fill="#ebedf0"><title>2023-12-24: 0 contribution(s)</title></rect>
<rect x="724" y="38" width="11" height="11" rx="2" ry="2" fill="#ebedf0"><title>2023-12-25: 0 contribution(s)</title></rect>
<rect x="724" y="52" width="11" height="11" rx="2" ry="2" fill="#ebedf0"><title>2023-12-26: 0 contribution(s)</title></rect>
<rect x="724" y="66" width="11" height="11" rx="2" ry="2" fill="#ebedf0"><title>2023-12-27: 0 contribution(s)</title></rect>
<rect x="724" y="80" width="11" height="11" rx="2" ry="2" fill="#ebedf0"><title>2023-12-28: 0 contribution(s)</title></rect>
<rect x="724" y="94" width="11" height="11" rx="2" ry="2" fill="#ebedf0"><title>2023-12-29: 0 contribution(s)</title></rect>
<rect x="724" y="108" width="11" height="11" rx="2" ry="2" fill="#9be9a8"><title>2023-12-30: 1 contribution(s)</title></rect>
<rect x="738" y="24" width="11" height="11" rx="2" ry="2" fill="#ebedf0"><title>2023-12-31: 0 contribution(s)</title></rect>

</svg>