<svg xmlns="http://www.w3.org/2000/svg" width="762" height="132" viewBox="0 0 762 132" font-family="'Segoe UI', Helvetica, Arial, sans-serif">
  <rect width="762" height="132" fill="transparent"/>
  <text x="10" y="15" font-size="12" font-weight="600" fill="#57606a">2024 · 406 contributions</text>
  <rect x="10" y="24" width="11" height="11" rx="2" ry="2" fill="#9be9a8"><title>2024-01-01: 5 contribution(s)</title></rect>
<rect x="10" y="38" width="11" height="11" rx="2" ry="2" fill="#9be9a8"><title>2024-01-02: 2 contribution(s)</title></rect>
<rect x="10" y="52" width="11" height="11" rx="2" ry="2" fill="#9be9a8"><title>2024-01-03: 3 contribution(s)</title></rect>
<rect x="10" y="66" width="11" height="11" rx="2" ry="2" fill="#9be9a8"><title>2024-01-04: 7 contribution(s)</title></rect>
<rect x="10" y="80" width="11" height="11" rx="2" ry="2" fill="#9be9a8"><title>2024-01-05: 4 contribution(s)</title></rect>
<rect x="10" y="94" width="11" height="11" rx="2" ry="2" fill="#9be9a8"><title>2024-01-06: 3 contribution(s)</title></rect>
<rect x="24" y="24" width="11" height="11" rx="2" ry="2" fill="#216e39"><title>2024-01-07: 43 contribution(s)</title></rect>
<rect x="24" y="38" width="11" height="11" rx="2" ry="2" fill="#216e39"><title>2024-01-08: 52 contribution(s)</title></rect>
<rect x="24" y="52" width="11" height="11" rx="2" ry="2" fill="#9be9a8"><title>2024-01-09: 3 contribution(s)</title></rect>
<rect x="24" y="66" width="11" height="11" rx="2" ry="2" fill="#ebedf0"><title>2024-01-10: 0 contribution(s)</title></rect>
<rect x="24" y="80" width="11" height="11" rx="2" ry="2" fill="#9be9a8"><title>2024-01-11: 6 contribution(s)</title></rect>
<rect x="24" y="94" width="11" height="11" rx="2" ry="2" fill="#9be9a8"><title>2024-01-12: 1 contribution(s)</title></rect>
<rect x="24" y="108" width="11" height="11" rx="2" ry="2" fill="#9be9a8"><title>2024-01-13: 7 contribution(s)</title></rect>
<rect x="38" y="24" width="11" height="11" rx="2" ry="2" fill="#9be9a8"><title>2024-01-14: 8 contribution(s)</title></rect>
<rect x="38" y="38" width="11" height="11" rx="2" ry="2" fill="#40c463"><title>2024-01-15: 24 contribution(s)</title></rect>
<rect x="38" y="52" width="11" height="11" rx="2" ry="2" fill="#9be9a8"><title>2024-01-16: 1 contribution(s)</title></rect>
<rect x="38" y="66" width="11" height="11" rx="2" ry="2" fill="#ebedf0"><title>2024-01-17: 0 contribution(s)</title></rect>
<rect x="38" y="80" width="11" height="11" rx="2" ry="2" fill="#ebedf0"><title>2024-01-18: 0 contribution(s)</title></rect>
<rect x="38" y="94" width="11" height="11" rx="2" ry="2" fill="#ebedf0"><title>2024-01-19: 0 contribution(s)</title></rect>
<rect x="38" y="108" width="11" height="11" rx="2" ry="2" fill="#ebedf0"><title>2024-01-20: 0 contribution(s)</title></rect>
<rect x="52" y="24" width="11" height="11" rx="2" ry="2" fill="#ebedf0"><title>2024-01-21: 0 contribution(s)</title></rect>
<rect x="52" y="38" width="11" height="11" rx="2" ry="2" fill="#ebedf0"><title>2024-01-22: 0 contribution(s)</title></rect>
<rect x="52" y="52" width="11" height="11" rx="2" ry="2" fill="#ebedf0"><title>2024-01-23: 0 contribution(s)</title></rect>
<rect x="52" y="66" width="11" height="11" rx="2" ry="2" fill="#ebedf0"><title>2024-01-24: 0 contribution(s)</title></rect>
<rect x="52" y="80" width="11" height="11" rx="2" ry="2" fill="#ebedf0"><title>2024-01-25: 0 contribution(s)</title></rect>
<rect x="52" y="94" width="11" height="11" rx="2" ry="2" fill="#ebedf0"><title>2024-01-26: 0 contribution(s)</title></rect>
<rect x="52" y="108" width="11" height="11" rx="2" ry="2" fill="#ebedf0"><title>2024-01-27: 0 contribution(s)</title></rect>
<rect x="66" y="24" width="11" height="11" rx="2" ry="2" fill="#9be9a8"><title>2024-01-28: 1 contribution(s)</title></rect>
<rect x="66" y="38" width="11" height="11" rx="2" ry="2" fill="#ebedf0"><title>2024-01-29: 0 contribution(s)</title></rect>
<rect x="66" y="52" width="11" height="11" rx="2" ry="2" fill="#9be9a8"><title>2024-01-30: 2 contribution(s)</title></rect>
<rect x="66" y="66" width="11" height="11" rx="2" ry="2" fill="#9be9a8"><title>2024-01-31: 2 contribution(s)</title></rect>
<rect x="66" y="80" width="11" height="11" rx="2" ry="2" fill="#9be9a8"><title>2024-02-01: 4 contribution(s)</title></rect>
<rect x="66" y="94" width="11" height="11" rx="2" ry="2" fill="#9be9a8"><title>2024-02-02: 5 contribution(s)</title></rect>
<rect x="66" y="108" width="11" height="11" rx="2" ry="2" fill="#ebedf0"><title>2024-02-03: 0 contribution(s)</title></rect>
<rect x="80" y="24" width="11" height="11" rx="2" ry="2" fill="#ebedf0"><title>2024-02-04: 0 contribution(s)</title></rect>
<rect x="80" y="38" width="11" height="11" rx="2" ry="2" fill="#ebedf0"><title>2024-02-05: 0 contribution(s)</title></rect>
<rect x="80" y="52" width="11" height="11" rx="2" ry="2" fill="#ebedf0"><title>2024-02-06: 0 contribution(s)</title></rect>
<rect x="80" y="66" width="11" height="11" rx="2" ry="2" fill="#ebedf0"><title>2024-02-07: 0 contribution(s)</title></rect>
<rect x="80" y="80" width="11" height="11" rx="2" ry="2" fill="#ebedf0"><title>2024-02-08: 0 contribution(s)</title></rect>
<rect x="80" y="94" width="11" height="11" rx="2" ry="2" fill="#ebedf0"><title>2024-02-09: 0 contribution(s)</title></rect>
<rect x="80" y="108" width="11" height="11" rx="2" ry="2" fill="#ebedf0"><title>2024-02-10: 0 contribution(s)</title></rect>
<rect x="94" y="24" width="11" height="11" rx="2" ry="2" fill="#ebedf0"><title>2024-02-11: 0 contribution(s)</title></rect>
<rect x="94" y="38" width="11" height="11" rx="2" ry="2" fill="#ebedf0"><title>2024-02-12: 0 contribution(s)</title></rect>
<rect x="94" y="52" width="11" height="11" rx="2" ry="2" fill="#ebedf0"><title>2024-02-13: 0 contribution(s)</title></rect>
<rect x="94" y="66" width="11" height="11" rx="2" ry="2" fill="#ebedf0"><title>2024-02-14: 0 contribution(s)</title></rect>
<rect x="94" y="80" width="11" height="11" rx="2" ry="2" fill="#ebedf0"><title>2024-02-15: 0 contribution(s)</title></rect>
<rect x="94" y="94" width="11" height="11" rx="2" ry="2" fill="#9be9a8"><title>2024-02-16: 7 contribution(s)</title></rect>
<rect x="94" y="108" width="11" height="11" rx="2" ry="2" fill="#9be9a8"><title>2024-02-17: 4 contribution(s)</title></rect>
<rect x="108" y="24" width="11" height="11" rx="2" ry="2" fill="#9be9a8"><title>2024-02-18: 1 contribution(s)</title></rect>
<rect x="108" y="38" width="11" height="11" rx="2" ry="2" fill="#ebedf0"><title>2024-02-19: 0 contribution(s)</title></rect>
<rect x="108" y="52" width="11" height="11" rx="2" ry="2" fill="#ebedf0"><title>2024-02-20: 0 contribution(s)</title></rect>
<rect x="108" y="66" width="11" height="11" rx="2" ry="2" fill="#ebedf0"><title>2024-02-21: 0 contribution(s)</title></rect>
<rect x="108" y="80" width="11" height="11" rx="2" ry="2" fill="#ebedf0"><title>2024-02-22: 0 contribution(s)</title></rect>
<rect x="108" y="94" width="11" height="11" rx="2" ry="2" fill="#ebedf0"><title>2024-02-23: 0 contribution(s)</title></rect>
<rect x="108" y="108" width="11" height="11" rx="2" ry="2" fill="#ebedf0"><title>2024-02-24: 0 contribution(s)</title></rect>
<rect x="122" y="24" width="11" height="11" rx="2" ry="2" fill="#ebedf0"><title>2024-02-25: 0 contribution(s)</title></rect>
<rect x="122" y="38" width="11" height="11" rx="2" ry="2" fill="#ebedf0"><title>2024-02-26: 0 contribution(s)</title></rect>
<rect x="122" y="52" width="11" height="11" rx="2" ry="2" fill="#9be9a8"><title>2024-02-27: 1 contribution(s)</title></rect>
<rect x="122" y="66" width="11" height="11" rx="2" ry="2" fill="#9be9a8"><title>2024-02-28: 4 contribution(s)</title></rect>
<rect x="122" y="80" width="11" height="11" rx="2" ry="2" fill="#ebedf0"><title>2024-02-29: 0 contribution(s)</title></rect>
<rect x="122" y="94" width="11" height="11" rx="2" ry="2" fill="#ebedf0"><title>2024-03-01: 0 contribution(s)</title></rect>
<rect x="122" y="108" width="11" height="11" rx="2" ry="2" fill="#ebedf0"><title>2024-03-02: 0 contribution(s)</title></rect>
<rect x="136" y="24" width="11" height="11" rx="2" ry="2" fill="#ebedf0"><title>2024-03-03: 0 contribution(s)</title></rect>
<rect x="136" y="38" width="11" height="11" rx="2" ry="2" fill="#ebedf0"><title>2024-03-04: 0 contribution(s)</title></rect>
<rect x="136" y="52" width="11" height="11" rx="2" ry="2" fill="#ebedf0"><title>2024-03-05: 0 contribution(s)</title></rect>
<rect x="136" y="66" width="11" height="11" rx="2" ry="2" fill="#ebedf0"><title>2024-03-06: 0 contribution(s)</title></rect>
<rect x="136" y="80" width="11" height="11" rx="2" ry="2" fill="#ebedf0"><title>2024-03-07: 0 contribution(s)</title></rect>
<rect x="136" y="94" width="11" height="11" rx="2" ry="2" fill="#ebedf0"><title>2024-03-08: 0 contribution(s)</title></rect>
<rect x="136" y="108" width="11" height="11" rx="2" ry="2" fill="#ebedf0"><title>2024-03-09: 0 contribution(s)</title></rect>
<rect x="150" y="24" width="11" height="11" rx="2" ry="2" fill="#ebedf0"><title>2024-03-10: 0 contribution(s)</title></rect>
<rect x="150" y="38" width="11" height="11" rx="2" ry="2" fill="#ebedf0"><title>2024-03-11: 0 contribution(s)</title></rect>
<rect x="150" y="52" width="11" height="11" rx="2" ry="2" fill="#ebedf0"><title>2024-03-12: 0 contribution(s)</title></rect>
<rect x="150" y="66" width="11" height="11" rx="2" ry="2" fill="#ebedf0"><title>2024-03-13: 0 contribution(s)</title></rect>
<rect x="150" y="80" width="11" height="11" rx="2" ry="2" fill="#ebedf0"><title>2024-03-14: 0 contribution(s)</title></rect>
<rect x="150" y="94" width="11" height="11" rx="2" ry="2" fill="#ebedf0"><title>2024-03-15: 0 contribution(s)</title></rect>
<rect x="150" y="108" width="11" height="11" rx="2" ry="2" fill="#ebedf0"><title>2024-03-16: 0 contribution(s)</title></rect>
<rect x="164" y="24" width="11" height="11" rx="2" ry="2" fill="#ebedf0"><title>2024-03-17: 0 contribution(s)</title></rect>
<rect x="164" y="38" width="11" height="11" rx="2" ry="2" fill="#ebedf0"><title>2024-03-18: 0 contribution(s)</title></rect>
<rect x="164" y="52" width="11" height="11" rx="2" ry="2" fill="#ebedf0"><title>2024-03-19: 0 contribution(s)</title></rect>
<rect x="164" y="66" width="11" height="11" rx="2" ry="2" fill="#ebedf0"><title>2024-03-20: 0 contribution(s)</title></rect>
<rect x="164" y="80" width="11" height="11" rx="2" ry="2" fill="#9be9a8"><title>2024-03-21: 3 contribution(s)</title></rect>
<rect x="164" y="94" width="11" height="11" rx="2" ry="2" fill="#ebedf0"><title>2024-03-22: 0 contribution(s)</title></rect>
<rect x="164" y="108" width="11" height="11" rx="2" ry="2" fill="#9be9a8"><title>2024-03-23: 6 contribution(s)</title></rect>
<rect x="178" y="24" width="11" height="11" rx="2" ry="2" fill="#9be9a8"><title>2024-03-24: 4 contribution(s)</title></rect>
<rect x="178" y="38" width="11" height="11" rx="2" ry="2" fill="#40c463"><title>2024-03-25: 22 contribution(s)</title></rect>
<rect x="178" y="52" width="11" height="11" rx="2" ry="2" fill="#9be9a8"><title>2024-03-26: 5 contribution(s)</title></rect>
<rect x="178" y="66" width="11" height="11" rx="2" ry="2" fill="#9be9a8"><title>2024-03-27: 3 contribution(s)</title></rect>
<rect x="178" y="80" width="11" height="11" rx="2" ry="2" fill="#9be9a8"><title>2024-03-28: 4 contribution(s)</title></rect>
<rect x="178" y="94" width="11" height="11" rx="2" ry="2" fill="#9be9a8"><title>2024-03-29: 2 contribution(s)</title></rect>
<rect x="178" y="108" width="11" height="11" rx="2" ry="2" fill="#ebedf0"><title>2024-03-30: 0 contribution(s)</title></rect>
<rect x="192" y="24" width="11" height="11" rx="2" ry="2" fill="#ebedf0"><title>2024-03-31: 0 contribution(s)</title></rect>
<rect x="192" y="38" width="11" height="11" rx="2" ry="2" fill="#ebedf0"><title>2024-04-01: 0 contribution(s)</title></rect>
<rect x="192" y="52" width="11" height="11" rx="2" ry="2" fill="#ebedf0"><title>2024-04-02: 0 contribution(s)</title></rect>
<rect x="192" y="66" width="11" height="11" rx="2" ry="2" fill="#ebedf0"><title>2024-04-03: 0 contribution(s)</title></rect>
<rect x="192" y="80" width="11" height="11" rx="2" ry="2" fill="#ebedf0"><title>2024-04-04: 0 contribution(s)</title></rect>
<rect x="192" y="94" width="11" height="11" rx="2" ry="2" fill="#ebedf0"><title>2024-04-05: 0 contribution(s)</title></rect>
<rect x="192" y="108" width="11" height="11" rx="2" ry="2" fill="#ebedf0"><title>2024-04-06: 0 contribution(s)</title></rect>
<rect x="206" y="24" width="11" height="11" rx="2" ry="2" fill="#ebedf0"><title>2024-04-07: 0 contribution(s)</title></rect>
<rect x="206" y="38" width="11" height="11" rx="2" ry="2" fill="#ebedf0"><title>2024-04-08: 0 contribution(s)</title></rect>
<rect x="206" y="52" width="11" height="11" rx="2" ry="2" fill="#ebedf0"><title>2024-04-09: 0 contribution(s)</title></rect>
<rect x="206" y="66" width="11" height="11" rx="2" ry="2" fill="#ebedf0"><title>2024-04-10: 0 contribution(s)</title></rect>
<rect x="206" y="80" width="11" height="11" rx="2" ry="2" fill="#ebedf0"><title>2024-04-11: 0 contribution(s)</title></rect>
<rect x="206" y="94" width="11" height="11" rx="2" ry="2" fill="#ebedf0"><title>2024-04-12: 0 contribution(s)</title></rect>
<rect x="206" y="108" width="11" height="11" rx="2" ry="2" fill="#ebedf0"><title>2024-04-13: 0 contribution(s)</title></rect>
<rect x="220" y="24" width="11" height="11" rx="2" ry="2" fill="#ebedf0"><title>2024-04-14: 0 contribution(s)</title></rect>
<rect x="220" y="38" width="11" height="11" rx="2" ry="2" fill="#ebedf0"><title>2024-04-15: 0 contribution(s)</title></rect>
<rect x="220" y="52" width="11" height="11" rx="2" ry="2" fill="#ebedf0"><title>2024-04-16: 0 contribution(s)</title></rect>
<rect x="220" y="66" width="11" height="11" rx="2" ry="2" fill="#ebedf0"><title>2024-04-17: 0 contribution(s)</title></rect>
<rect x="220" y="80" width="11" height="11" rx="2" ry="2" fill="#ebedf0"><title>2024-04-18: 0 contribution(s)</title></rect>
<rect x="220" y="94" width="11" height="11" rx="2" ry="2" fill="#ebedf0"><title>2024-04-19: 0 contribution(s)</title></rect>
<rect x="220" y="108" width="11" height="11" rx="2" ry="2" fill="#ebedf0"><title>2024-04-20: 0 contribution(s)</title></rect>
<rect x="234" y="24" width="11" height="11" rx="2" ry="2" fill="#ebedf0"><title>2024-04-21: 0 contribution(s)</title></rect>
<rect x="234" y="38" width="11" height="11" rx="2" ry="2" fill="#ebedf0"><title>2024-04-22: 0 contribution(s)</title></rect>
<rect x="234" y="52" width="11" height="11" rx="2" ry="2" fill="#ebedf0"><title>2024-04-23: 0 contribution(s)</title></rect>
<rect x="234" y="66" width="11" height="11" rx="2" ry="2" fill="#ebedf0"><title>2024-04-24: 0 contribution(s)</title></rect>
<rect x="234" y="80" width="11" height="11" rx="2" ry="2" fill="#ebedf0"><title>2024-04-25: 0 contribution(s)</title></rect>
<rect x="234" y="94" width="11" height="11" rx="2" ry="2" fill="#ebedf0"><title>2024-04-26: 0 contribution(s)</title></rect>
<rect x="234" y="108" width="11" height="11" rx="2" ry="2" fill="#ebedf0"><title>2024-04-27: 0 contribution(s)</title></rect>
<rect x="248" y="24" width="11" height="11" rx="2" ry="2" fill="#ebedf0"><title>2024-04-28: 0 contribution(s)</title></rect>
<rect x="248" y="38" width="11" height="11" rx="2" ry="2" fill="#ebedf0"><title>2024-04-29: 0 contribution(s)</title></rect>
<rect x="248" y="52" width="11" height="11" rx="2" ry="2" fill="#ebedf0"><title>2024-04-30: 0 contribution(s)</title></rect>
<rect x="248" y="66" width="11" height="11" rx="2" ry="2" fill="#ebedf0"><title>2024-05-01: 0 contribution(s)</title></rect>
<rect x="248" y="80" width="11" height="11" rx="2" ry="2" fill="#ebedf0"><title>2024-05-02: 0 contribution(s)</title></rect>
<rect x="248" y="94" width="11" height="11" rx="2" ry="2" fill="#ebedf0"><title>2024-05-03: 0 contribution(s)</title></rect>
<rect x="248" y="108" width="11" height="11" rx="2" ry="2" fill="#ebedf0"><title>2024-05-04: 0 contribution(s)</title></rect>
<rect x="262" y="24" width="11" height="11" rx="2" ry="2" fill="#ebedf0"><title>2024-05-05: 0 contribution(s)</title></rect>
<rect x="262" y="38" width="11" height="11" rx="2" ry="2" fill="#ebedf0"><title>2024-05-06: 0 contribution(s)</title></rect>
<rect x="262" y="52" width="11" height="11" rx="2" ry="2" fill="#ebedf0"><title>2024-05-07: 0 contribution(s)</title></rect>
<rect x="262" y="66" width="11" height="11" rx="2" ry="2" fill="#ebedf0"><title>2024-05-08: 0 contribution(s)</title></rect>
<rect x="262" y="80" width="11" height="11" rx="2" ry="2" fill="#ebedf0"><title>2024-05-09: 0 contribution(s)</title></rect>
<rect x="262" y="94" width="11" height="11" rx="2" ry="2" fill="#ebedf0"><title>2024-05-10: 0 contribution(s)</title></rect>
<rect x="262" y="108" width="11" height="11" rx="2" ry="2" fill="#ebedf0"><title>2024-05-11: 0 contribution(s)</title></rect>
<rect x="276" y="24" width="11" height="11" rx="2" ry="2" fill="#ebedf0"><title>2024-05-12: 0 contribution(s)</title></rect>
<rect x="276" y="38" width="11" height="11" rx="2" ry="2" fill="#ebedf0"><title>2024-05-13: 0 contribution(s)</title></rect>
<rect x="276" y="52" width="11" height="11" rx="2" ry="2" fill="#ebedf0"><title>2024-05-14: 0 contribution(s)</title></rect>
<rect x="276" y="66" width="11" height="11" rx="2" ry="2" fill="#40c463"><title>2024-05-15: 17 contribution(s)</title></rect>
<rect x="276" y="80" width="11" height="11" rx="2" ry="2" fill="#9be9a8"><title>2024-05-16: 1 contribution(s)</title></rect>
<rect x="276" y="94" width="11" height="11" rx="2" ry="2" fill="#ebedf0"><title>2024-05-17: 0 contribution(s)</title></rect>
<rect x="276" y="108" width="11" height="11" rx="2" ry="2" fill="#ebedf0"><title>2024-05-18: 0 contribution(s)</title></rect>
<rect x="290" y="24" width="11" height="11" rx="2" ry="2" fill="#ebedf0"><title>2024-05-19: 0 contribution(s)</title></rect>
<rect x="290" y="38" width="11" height="11" rx="2" ry="2" fill="#ebedf0"><title>2024-05-20: 0 contribution(s)</title></rect>
<rect x="290" y="52" width="11" height="11" rx="2" ry="2" fill="#ebedf0"><title>2024-05-21: 0 contribution(s)</title></rect>
<rect x="290" y="66" width="11" height="11" rx="2" ry="2" fill="#ebedf0"><title>2024-05-22: 0 contribution(s)</title></rect>
<rect x="290" y="80" width="11" height="11" rx="2" ry="2" fill="#ebedf0"><title>2024-05-23: 0 contribution(s)</title></rect>
<rect x="290" y="94" width="11" height="11" rx="2" ry="2" fill="#ebedf0"><title>2024-05-24: 0 contribution(s)</title></rect>
<rect x="290" y="108" width="11" height="11" rx="2" ry="2" fill="#ebedf0"><title>2024-05-25: 0 contribution(s)</title></rect>
<rect x="304" y="24" width="11" height="11" rx="2" ry="2" fill="#ebedf0"><title>2024-05-26: 0 contribution(s)</title></rect>
<rect x="304" y="38" width="11" height="11" rx="2" ry="2" fill="#ebedf0"><title>2024-05-27: 0 contribution(s)</title></rect>
<rect x="304" y="52" width="11" height="11" rx="2" ry="2" fill="#ebedf0"><title>2024-05-28: 0 contribution(s)</title></rect>
<rect x="304" y="66" width="11" height="11" rx="2" ry="2" fill="#ebedf0"><title>2024-05-29: 0 contribution(s)</title></rect>
<rect x="304" y="80" width="11" height="11" rx="2" ry="2" fill="#ebedf0"><title>2024-05-30: 0 contribution(s)</title></rect>
<rect x="304" y="94" width="11" height="11" rx="2" ry="2" fill="#ebedf0"><title>2024-05-31: 0 contribution(s)</title></rect>
<rect x="304" y="108" width="11" height="11" rx="2" ry="2" fill="#ebedf0"><title>2024-06-01: 0 contribution(s)</title></rect>
<rect x="318" y="24" width="11" height="11" rx="2" ry="2" fill="#ebedf0"><title>2024-06-02: 0 contribution(s)</title></rect>
<rect x="318" y="38" width="11" height="11" rx="2" ry="2" fill="#ebedf0"><title>2024-06-03: 0 contribution(s)</title></rect>
<rect x="318" y="52" width="11" height="11" rx="2" ry="2" fill="#ebedf0"><title>2024-06-04: 0 contribution(s)</title></rect>
<rect x="318" y="66" width="11" height="11" rx="2" ry="2" fill="#ebedf0"><title>2024-06-05: 0 contribution(s)</title></rect>
<rect x="318" y="80" width="11" height="11" rx="2" ry="2" fill="#ebedf0"><title>2024-06-06: 0 contribution(s)</title></rect>
<rect x="318" y="94" width="11" height="11" rx="2" ry="2" fill="#ebedf0"><title>2024-06-07: 0 contribution(s)</title></rect>
<rect x="318" y="108" width="11" height="11" rx="2" ry="2" fill="#ebedf0"><title>2024-06-08: 0 contribution(s)</title></rect>
<rect x="332" y="24" width="11" height="11" rx="2" ry="2" fill="#ebedf0"><title>2024-06-09: 0 contribution(s)</title></rect>
<rect x="332" y="38" width="11" height="11" rx="2" ry="2" fill="#ebedf0"><title>2024-06-10: 0 contribution(s)</title></rect>
<rect x="332" y="52" width="11" height="11" rx="2" ry="2" fill="#ebedf0"><title>2024-06-11: 0 contribution(s)</title></rect>
<rect x="332" y="66" width="11" height="11" rx="2" ry="2" fill="#ebedf0"><title>2024-06-12: 0 contribution(s)</title></rect>
<rect x="332" y="80" width="11" height="11" rx="2" ry="2" fill="#ebedf0"><title>2024-06-13: 0 contribution(s)</title></rect>
<rect x="332" y="94" width="11" height="11" rx="2" ry="2" fill="#ebedf0"><title>2024-06-14: 0 contribution(s)</title></rect>
<rect x="332" y="108" width="11" height="11" rx="2" ry="2" fill="#ebedf0"><title>2024-06-15: 0 contribution(s)</title></rect>
<rect x="346" y="24" width="11" height="11" rx="2" ry="2" fill="#ebedf0"><title>2024-06-16: 0 contribution(s)</title></rect>
<rect x="346" y="38" width="11" height="11" rx="2" ry="2" fill="#ebedf0"><title>2024-06-17: 0 contribution(s)</title></rect>
<rect x="346" y="52" width="11" height="11" rx="2" ry="2" fill="#ebedf0"><title>2024-06-18: 0 contribution(s)</title></rect>
<rect x="346" y="66" width="11" height="11" rx="2" ry="2" fill="#ebedf0"><title>2024-06-19: 0 contribution(s)</title></rect>
<rect x="346" y="80" width="11" height="11" rx="2" ry="2" fill="#ebedf0"><title>2024-06-20: 0 contribution(s)</title></rect>
<rect x="346" y="94" width="11" height="11" rx="2" ry="2" fill="#ebedf0"><title>2024-06-21: 0 contribution(s)</title></rect>
<rect x="346" y="108" width="11" height="11" rx="2" ry="2" fill="#ebedf0"><title>2024-06-22: 0 contribution(s)</title></rect>
<rect x="360" y="24" width="11" height="11" rx="2" ry="2" fill="#ebedf0"><title>2024-06-23: 0 contribution(s)</title></rect>
<rect x="360" y="38" width="11" height="11" rx="2" ry="2" fill="#ebedf0"><title>2024-06-24: 0 contribution(s)</title></rect>
<rect x="360" y="52" width="11" height="11" rx="2" ry="2" fill="#ebedf0"><title>2024-06-25: 0 contribution(s)</title></rect>
<rect x="360" y="66" width="11" height="11" rx="2" ry="2" fill="#ebedf0"><title>2024-06-26: 0 contribution(s)</title></rect>
<rect x="360" y="80" width="11" height="11" rx="2" ry="2" fill="#ebedf0"><title>2024-06-27: 0 contribution(s)</title></rect>
<rect x="360" y="94" width="11" height="11" rx="2" ry="2" fill="#ebedf0"><title>2024-06-28: 0 contribution(s)</title></rect>
<rect x="360" y="108" width="11" height="11" rx="2" ry="2" fill="#ebedf0"><title>2024-06-29: 0 contribution(s)</title></rect>
<rect x="374" y="24" width="11" height="11" rx="2" ry="2" fill="#ebedf0"><title>2024-06-30: 0 contribution(s)</title></rect>
<rect x="374" y="38" width="11" height="11" rx="2" ry="2" fill="#ebedf0"><title>2024-07-01: 0 contribution(s)</title></rect>
<rect x="374" y="52" width="11" height="11" rx="2" ry="2" fill="#ebedf0"><title>2024-07-02: 0 contribution(s)</title></rect>
<rect x="374" y="66" width="11" height="11" rx="2" ry="2" fill="#ebedf0"><title>2024-07-03: 0 contribution(s)</title></rect>
<rect x="374" y="80" width="11" height="11" rx="2" ry="2" fill="#ebedf0"><title>2024-07-04: 0 contribution(s)</title></rect>
<rect x="374" y="94" width="11" height="11" rx="2" ry="2" fill="#ebedf0"><title>2024-07-05: 0 contribution(s)</title></rect>
<rect x="374" y="108" width="11" height="11" rx="2" ry="2" fill="#ebedf0"><title>2024-07-06: 0 contribution(s)</title></rect>
<rect x="388" y="24" width="11" height="11" rx="2" ry="2" fill="#ebedf0"><title>2024-07-07: 0 contribution(s)</title></rect>
<rect x="388" y="38" width="11" height="11" rx="2" ry="2" fill="#ebedf0"><title>2024-07-08: 0 contribution(s)</title></rect>
<rect x="388" y="52" width="11" height="11" rx="2" ry="2" fill="#ebedf0"><title>2024-07-09: 0 contribution(s)</title></rect>
<rect x="388" y="66" width="11" height="11" rx="2" ry="2" fill="#ebedf0"><title>2024-07-10: 0 contribution(s)</title></rect>
<rect x="388" y="80" width="11" height="11" rx="2" ry="2" fill="#ebedf0"><title>2024-07-11: 0 contribution(s)</title></rect>
<rect x="388" y="94" width="11" height="11" rx="2" ry="2" fill="#ebedf0"><title>2024-07-12: 0 contribution(s)</title></rect>
<rect x="388" y="108" width="11" height="11" rx="2" ry="2" fill="#ebedf0"><title>2024-07-13: 0 contribution(s)</title></rect>
<rect x="402" y="24" width="11" height="11" rx="2" ry="2" fill="#ebedf0"><title>2024-07-14: 0 contribution(s)</title></rect>
<rect x="402" y="38" width="11" height="11" rx="2" ry="2" fill="#ebedf0"><title>2024-07-15: 0 contribution(s)</title></rect>
<rect x="402" y="52" width="11" height="11" rx="2" ry="2" fill="#ebedf0"><title>2024-07-16: 0 contribution(s)</title></rect>
<rect x="402" y="66" width="11" height="11" rx="2" ry="2" fill="#ebedf0"><title>2024-07-17: 0 contribution(s)</title></rect>
<rect x="402" y="80" width="11" height="11" rx="2" ry="2" fill="#ebedf0"><title>2024-07-18: 0 contribution(s)</title></rect>
<rect x="402" y="94" width="11" height="11" rx="2" ry="2" fill="#ebedf0"><title>2024-07-19: 0 contribution(s)</title></rect>
<rect x="402" y="108" width="11" height="11" rx="2" ry="2" fill="#ebedf0"><title>2024-07-20: 0 contribution(s)</title></rect>
<rect x="416" y="24" width="11" height="11" rx="2" ry="2" fill="#ebedf0"><title>2024-07-21: 0 contribution(s)</title></rect>
<rect x="416" y="38" width="11" height="11" rx="2" ry="2" fill="#ebedf0"><title>2024-07-22: 0 contribution(s)</title></rect>
<rect x="416" y="52" width="11" height="11" rx="2" ry="2" fill="#ebedf0"><title>2024-07-23: 0 contribution(s)</title></rect>
<rect x="416" y="66" width="11" height="11" rx="2" ry="2" fill="#ebedf0"><title>2024-07-24: 0 contribution(s)</title></rect>
<rect x="416" y="80" width="11" height="11" rx="2" ry="2" fill="#ebedf0"><title>2024-07-25: 0 contribution(s)</title></rect>
<rect x="416" y="94" width="11" height="11" rx="2" ry="2" fill="#ebedf0"><title>2024-07-26: 0 contribution(s)</title></rect>
<rect x="416" y="108" width="11" height="11" rx="2" ry="2" fill="#ebedf0"><title>2024-07-27: 0 contribution(s)</title></rect>
<rect x="430" y="24" width="11" height="11" rx="2" ry="2" fill="#ebedf0"><title>2024-07-28: 0 contribution(s)</title></rect>
<rect x="430" y="38" width="11" height="11" rx="2" ry="2" fill="#ebedf0"><title>2024-07-29: 0 contribution(s)</title></rect>
<rect x="430" y="52" width="11" height="11" rx="2" ry="2" fill="#9be9a8"><title>2024-07-30: 2 contribution(s)</title></rect>
<rect x="430" y="66" width="11" height="11" rx="2" ry="2" fill="#ebedf0"><title>2024-07-31: 0 contribution(s)</title></rect>
<rect x="430" y="80" width="11" height="11" rx="2" ry="2" fill="#ebedf0"><title>2024-08-01: 0 contribution(s)</title></rect>
<rect x="430" y="94" width="11" height="11" rx="2" ry="2" fill="#ebedf0"><title>2024-08-02: 0 contribution(s)</title></rect>
<rect x="430" y="108" width="11" height="11" rx="2" ry="2" fill="#ebedf0"><title>2024-08-03: 0 contribution(s)</title></rect>
<rect x="444" y="24" width="11" height="11" rx="2" ry="2" fill="#ebedf0"><title>2024-08-04: 0 contribution(s)</title></rect>
<rect x="444" y="38" width="11" height="11" rx="2" ry="2" fill="#ebedf0"><title>2024-08-05: 0 contribution(s)</title></rect>
<rect x="444" y="52" width="11" height="11" rx="2" ry="2" fill="#ebedf0"><title>2024-08-06: 0 contribution(s)</title></rect>
<rect x="444" y="66" width="11" height="11" rx="2" ry="2" fill="#ebedf0"><title>2024-08-07: 0 contribution(s)</title></rect>
<rect x="444" y="80" width="11" height="11" rx="2" ry="2" fill="#ebedf0"><title>2024-08-08: 0 contribution(s)</title></rect>
<rect x="444" y="94" width="11" height="11" rx="2" ry="2" fill="#ebedf0"><title>2024-08-09: 0 contribution(s)</title></rect>
<rect x="444" y="108" width="11" height="11" rx="2" ry="2" fill="#9be9a8"><title>2024-08-10: 2 contribution(s)</title></rect>
<rect x="458" y="24" width="11" height="11" rx="2" ry="2" fill="#ebedf0"><title>2024-08-11: 0 contribution(s)</title></rect>
<rect x="458" y="38" width="11" height="11" rx="2" ry="2" fill="#9be9a8"><title>2024-08-12: 1 contribution(s)</title></rect>
<rect x="458" y="52" width="11" height="11" rx="2" ry="2" fill="#ebedf0"><title>2024-08-13: 0 contribution(s)</title></rect>
<rect x="458" y="66" width="11" height="11" rx="2" ry="2" fill="#9be9a8"><title>2024-08-14: 11 contribution(s)</title></rect>
<rect x="458" y="80" width="11" height="11" rx="2" ry="2" fill="#40c463"><title>2024-08-15: 17 contribution(s)</title></rect>
<rect x="458" y="94" width="11" height="11" rx="2" ry="2" fill="#9be9a8"><title>2024-08-16: 8 contribution(s)</title></rect>
<rect x="458" y="108" width="11" height="11" rx="2" ry="2" fill="#9be9a8"><title>2024-08-17: 5 contribution(s)</title></rect>
<rect x="472" y="24" width="11" height="11" rx="2" ry="2" fill="#40c463"><title>2024-08-18: 15 contribution(s)</title></rect>
<rect x="472" y="38" width="11" height="11" rx="2" ry="2" fill="#ebedf0"><title>2024-08-19: 0 contribution(s)</title></rect>
<rect x="472" y="52" width="11" height="11" rx="2" ry="2" fill="#ebedf0"><title>2024-08-20: 0 contribution(s)</title></rect>
<rect x="472" y="66" width="11" height="11" rx="2" ry="2" fill="#ebedf0"><title>2024-08-21: 0 contribution(s)</title></rect>
<rect x="472" y="80" width="11" height="11" rx="2" ry="2" fill="#9be9a8"><title>2024-08-22: 1 contribution(s)</title></rect>
<rect x="472" y="94" width="11" height="11" rx="2" ry="2" fill="#ebedf0"><title>2024-08-23: 0 contribution(s)</title></rect>
<rect x="472" y="108" width="11" height="11" rx="2" ry="2" fill="#ebedf0"><title>2024-08-24: 0 contribution(s)</title></rect>
<rect x="486" y="24" width="11" height="11" rx="2" ry="2" fill="#ebedf0"><title>2024-08-25: 0 contribution(s)</title></rect>
<rect x="486" y="38" width="11" height="11" rx="2" ry="2" fill="#ebedf0"><title>2024-08-26: 0 contribution(s)</title></rect>
<rect x="486" y="52" width="11" height="11" rx="2" ry="2" fill="#ebedf0"><title>2024-08-27: 0 contribution(s)</title></rect>
<rect x="486" y="66" width="11" height="11" rx="2" ry="2" fill="#ebedf0"><title>2024-08-28: 0 contribution(s)</title></rect>
<rect x="486" y="80" width="11" height="11" rx="2" ry="2" fill="#ebedf0"><title>2024-08-29: 0 contribution(s)</title></rect>
<rect x="486" y="94" width="11" height="11" rx="2" ry="2" fill="#ebedf0"><title>2024-08-30: 0 contribution(s)</title></rect>
<rect x="486" y="108" width="11" height="11" rx="2" ry="2" fill="#ebedf0"><title>2024-08-31: 0 contribution(s)</title></rect>
<rect x="500" y="24" width="11" height="11" rx="2" ry="2" fill="#ebedf0"><title>2024-09-01: 0 contribution(s)</title></rect>
<rect x="500" y="38" width="11" height="11" rx="2" ry="2" fill="#ebedf0"><title>2024-09-02: 0 contribution(s)</title></rect>
<rect x="500" y="52" width="11" height="11" rx="2" ry="2" fill="#ebedf0"><title>2024-09-03: 0 contribution(s)</title></rect>
<rect x="500" y="66" width="11" height="11" rx="2" ry="2" fill="#ebedf0"><title>2024-09-04: 0 contribution(s)</title></rect>
<rect x="500" y="80" width="11" height="11" rx="2" ry="2" fill="#ebedf0"><title>2024-09-05: 0 contribution(s)</title></rect>
<rect x="500" y="94" width="11" height="11" rx="2" ry="2" fill="#ebedf0"><title>2024-09-06: 0 contribution(s)</title></rect>
<rect x="500" y="108" width="11" height="11" rx="2" ry="2" fill="#ebedf0"><title>2024-09-07: 0 contribution(s)</title></rect>
<rect x="514" y="24" width="11" height="11" rx="2" ry="2" fill="#ebedf0"><title>2024-09-08: 0 contribution(s)</title></rect>
<rect x="514" y="38" width="11" height="11" rx="2" ry="2" fill="#ebedf0"><title>2024-09-09: 0 contribution(s)</title></rect>
<rect x="514" y="52" width="11" height="11" rx="2" ry="2" fill="#ebedf0"><title>2024-09-10: 0 contribution(s)</title></rect>
<rect x="514" y="66" width="11" height="11" rx="2" ry="2" fill="#ebedf0"><title>2024-09-11: 0 contribution(s)</title></rect>
<rect x="514" y="80" width="11" height="11" rx="2" ry="2" fill="#ebedf0"><title>2024-09-12: 0 contribution(s)</title></rect>
<rect x="514" y="94" width="11" height="11" rx="2" ry="2" fill="#9be9a8"><title>2024-09-13: 1 contribution(s)</title></rect>
<rect x="514" y="108" width="11" height="11" rx="2" ry="2" fill="#ebedf0"><title>2024-09-14: 0 contribution(s)</title></rect>
<rect x="528" y="24" width="11" height="11" rx="2" ry="2" fill="#ebedf0"><title>2024-09-15: 0 contribution(s)</title></rect>
<rect x="528" y="38" width="11" height="11" rx="2" ry="2" fill="#ebedf0"><title>2024-09-16: 0 contribution(s)</title></rect>
<rect x="528" y="52" width="11" height="11" rx="2" ry="2" fill="#9be9a8"><title>2024-09-17: 5 contribution(s)</title></rect>
<rect x="528" y="66" width="11" height="11" rx="2" ry="2" fill="#ebedf0"><title>2024-09-18: 0 contribution(s)</title></rect>
<rect x="528" y="80" width="11" height="11" rx="2" ry="2" fill="#ebedf0"><title>2024-09-19: 0 contribution(s)</title></rect>
<rect x="528" y="94" width="11" height="11" rx="2" ry="2" fill="#ebedf0"><title>2024-09-20: 0 contribution(s)</title></rect>
<rect x="528" y="108" width="11" height="11" rx="2" ry="2" fill="#ebedf0"><title>2024-09-21: 0 contribution(s)</title></rect>
<rect x="542" y="24" width="11" height="11" rx="2" ry="2" fill="#ebedf0"><title>2024-09-22: 0 contribution(s)</title></rect>
<rect x="542" y="38" width="11" height="11" rx="2" ry="2" fill="#ebedf0"><title>2024-09-23: 0 contribution(s)</title></rect>
<rect x="542" y="52" width="11" height="11" rx="2" ry="2" fill="#ebedf0"><title>2024-09-24: 0 contribution(s)</title></rect>
<rect x="542" y="66" width="11" height="11" rx="2" ry="2" fill="#ebedf0"><title>2024-09-25: 0 contribution(s)</title></rect>
<rect x="542" y="80" width="11" height="11" rx="2" ry="2" fill="#ebedf0"><title>2024-09-26: 0 contribution(s)</title></rect>
<rect x="542" y="94" width="11" height="11" rx="2" ry="2" fill="#ebedf0"><title>2024-09-27: 0 contribution(s)</title></rect>
<rect x="542" y="108" width="11" height="11" rx="2" ry="2" fill="#ebedf0"><title>2024-09-28: 0 contribution(s)</title></rect>
<rect x="556" y="24" width="11" height="11" rx="2" ry="2" fill="#ebedf0"><title>2024-09-29: 0 contribution(s)</title></rect>
<rect x="556" y="38" width="11" height="11" rx="2" ry="2" fill="#ebedf0"><title>2024-09-30: 0 contribution(s)</title></rect>
<rect x="556" y="52" width="11" height="11" rx="2" ry="2" fill="#ebedf0"><title>2024-10-01: 0 contribution(s)</title></rect>
<rect x="556" y="66" width="11" height="11" rx="2" ry="2" fill="#ebedf0"><title>2024-10-02: 0 contribution(s)</title></rect>
<rect x="556" y="80" width="11" height="11" rx="2" ry="2" fill="#ebedf0"><title>2024-10-03: 0 contribution(s)</title></rect>
<rect x="556" y="94" width="11" height="11" rx="2" ry="2" fill="#ebedf0"><title>2024-10-04: 0 contribution(s)</title></rect>
<rect x="556" y="108" width="11" height="11" rx="2" ry="2" fill="#ebedf0"><title>2024-10-05: 0 contribution(s)</title></rect>
<rect x="570" y="24" width="11" height="11" rx="2" ry="2" fill="#ebedf0"><title>2024-10-06: 0 contribution(s)</title></rect>
<rect x="570" y="38" width="11" height="11" rx="2" ry="2" fill="#ebedf0"><title>2024-10-07: 0 contribution(s)</title></rect>
<rect x="570" y="52" width="11" height="11" rx="2" ry="2" fill="#ebedf0"><title>2024-10-08: 0 contribution(s)</title></rect>
<rect x="570" y="66" width="11" height="11" rx="2" ry="2" fill="#9be9a8"><title>2024-10-09: 3 contribution(s)</title></rect>
<rect x="570" y="80" width="11" height="11" rx="2" ry="2" fill="#9be9a8"><title>2024-10-10: 7 contribution(s)</title></rect>
<rect x="570" y="94" width="11" height="11" rx="2" ry="2" fill="#ebedf0"><title>2024-10-11: 0 contribution(s)</title></rect>
<rect x="570" y="108" width="11" height="11" rx="2" ry="2" fill="#ebedf0"><title>2024-10-12: 0 contribution(s)</title></rect>
<rect x="584" y="24" width="11" height="11" rx="2" ry="2" fill="#ebedf0"><title>2024-10-13: 0 contribution(s)</title></rect>
<rect x="584" y="38" width="11" height="11" rx="2" ry="2" fill="#ebedf0"><title>2024-10-14: 0 contribution(s)</title></rect>
<rect x="584" y="52" width="11" height="11" rx="2" ry="2" fill="#ebedf0"><title>2024-10-15: 0 contribution(s)</title></rect>
<rect x="584" y="66" width="11" height="11" rx="2" ry="2" fill="#9be9a8"><title>2024-10-16: 5 contribution(s)</title></rect>
<rect x="584" y="80" width="11" height="11" rx="2" ry="2" fill="#9be9a8"><title>2024-10-17: 4 contribution(s)</title></rect>
<rect x="584" y="94" width="11" height="11" rx="2" ry="2" fill="#9be9a8"><title>2024-10-18: 6 contribution(s)</title></rect>
<rect x="584" y="108" width="11" height="11" rx="2" ry="2" fill="#9be9a8"><title>2024-10-19: 1 contribution(s)</title></rect>
<rect x="598" y="24" width="11" height="11" rx="2" ry="2" fill="#ebedf0"><title>2024-10-20: 0 contribution(s)</title></rect>
<rect x="598" y="38" width="11" height="11" rx="2" ry="2" fill="#9be9a8"><title>2024-10-21: 3 contribution(s)</title></rect>
<rect x="598" y="52" width="11" height="11" rx="2" ry="2" fill="#ebedf0"><title>2024-10-22: 0 contribution(s)</title></rect>
<rect x="598" y="66" width="11" height="11" rx="2" ry="2" fill="#ebedf0"><title>2024-10-23: 0 contribution(s)</title></rect>
<rect x="598" y="80" width="11" height="11" rx="2" ry="2" fill="#ebedf0"><title>2024-10-24: 0 contribution(s)</title></rect>
<rect x="598" y="94" width="11" height="11" rx="2" ry="2" fill="#ebedf0"><title>2024-10-25: 0 contribution(s)</title></rect>
<rect x="598" y="108" width="11" height="11" rx="2" ry="2" fill="#ebedf0"><title>2024-10-26: 0 contribution(s)</title></rect>
<rect x="612" y="24" width="11" height="11" rx="2" ry="2" fill="#ebedf0"><title>2024-10-27: 0 contribution(s)</title></rect>
<rect x="612" y="38" width="11" height="11" rx="2" ry="2" fill="#ebedf0"><title>2024-10-28: 0 contribution(s)</title></rect>
<rect x="612" y="52" width="11" height="11" rx="2" ry="2" fill="#ebedf0"><title>2024-10-29: 0 contribution(s)</title></rect>
<rect x="612" y="66" width="11" height="11" rx="2" ry="2" fill="#ebedf0"><title>2024-10-30: 0 contribution(s)</title></rect>
<rect x="612" y="80" width="11" height="11" rx="2" ry="2" fill="#ebedf0"><title>2024-10-31: 0 contribution(s)</title></rect>
<rect x="612" y="94" width="11" height="11" rx="2" ry="2" fill="#ebedf0"><title>2024-11-01: 0 contribution(s)</title></rect>
<rect x="612" y="108" width="11" height="11" rx="2" ry="2" fill="#ebedf0"><title>2024-11-02: 0 contribution(s)</title></rect>
<rect x="626" y="24" width="11" height="11" rx="2" ry="2" fill="#ebedf0"><title>2024-11-03: 0 contribution(s)</title></rect>
<rect x="626" y="38" width="11" height="11" rx="2" ry="2" fill="#ebedf0"><title>2024-11-04: 0 contribution(s)</title></rect>
<rect x="626" y="52" width="11" height="11" rx="2" ry="2" fill="#ebedf0"><title>2024-11-05: 0 contribution(s)</title></rect>
<rect x="626" y="66" width="11" height="11" rx="2" ry="2" fill="#9be9a8"><title>2024-11-06: 1 contribution(s)</title></rect>
<rect x="626" y="80" width="11" height="11" rx="2" ry="2" fill="#9be9a8"><title>2024-11-07: 3 contribution(s)</title></rect>
<rect x="626" y="94" width="11" height="11" rx="2" ry="2" fill="#9be9a8"><title>2024-11-08: 2 contribution(s)</title></rect>
<rect x="626" y="108" width="11" height="11" rx="2" ry="2" fill="#ebedf0"><title>2024-11-09: 0 contribution(s)</title></rect>
<rect x="640" y="24" width="11" height="11" rx="2" ry="2" fill="#9be9a8"><title>2024-11-10: 3 contribution(s)</title></rect>
<rect x="640" y="38" width="11" height="11" rx="2" ry="2" fill="#9be9a8"><title>2024-11-11: 1 contribution(s)</title></rect>
<rect x="640" y="52" width="11" height="11" rx="2" ry="2" fill="#9be9a8"><title>2024-11-12: 3 contribution(s)</title></rect>
<rect x="640" y="66" width="11" height="11" rx="2" ry="2" fill="#9be9a8"><title>2024-11-13: 1 contribution(s)</title></rect>
<rect x="640" y="80" width="11" height="11" rx="2" ry="2" fill="#9be9a8"><title>2024-11-14: 2 contribution(s)</title></rect>
<rect x="640" y="94" width="11" height="11" rx="2" ry="2" fill="#9be9a8"><title>2024-11-15: 1 contribution(s)</title></rect>
<rect x="640" y="108" width="11" height="11" rx="2" ry="2" fill="#ebedf0"><title>2024-11-16: 0 contribution(s)</title></rect>
<rect x="654" y="24" width="11" height="11" rx="2" ry="2" fill="#ebedf0"><title>2024-11-17: 0 contribution(s)</title></rect>
<rect x="654" y="38" width="11" height="11" rx="2" ry="2" fill="#9be9a8"><title>2024-11-18: 1 contribution(s)</title></rect>
<rect x="654" y="52" width="11" height="11" rx="2" ry="2" fill="#ebedf0"><title>2024-11-19: 0 contribution(s)</title></rect>
<rect x="654" y="66" width="11" height="11" rx="2" ry="2" fill="#ebedf0"><title>2024-11-20: 0 contribution(s)</title></rect>
<rect x="654" y="80" width="11" height="11" rx="2" ry="2" fill="#ebedf0"><title>2024-11-21: 0 contribution(s)</title></rect>
<rect x="654" y="94" width="11" height="11" rx="2" ry="2" fill="#9be9a8"><title>2024-11-22: 6 contribution(s)</title></rect>
<rect x="654" y="108" width="11" height="11" rx="2" ry="2" fill="#9be9a8"><title>2024-11-23: 7 contribution(s)</title></rect>
<rect x="668" y="24" width="11" height="11" rx="2" ry="2" fill="#ebedf0"><title>2024-11-24: 0 contribution(s)</title></rect>
<rect x="668" y="38" width="11" height="11" rx="2" ry="2" fill="#ebedf0"><title>2024-11-25: 0 contribution(s)</title></rect>
<rect x="668" y="52" width="11" height="11" rx="2" ry="2" fill="#ebedf0"><title>2024-11-26: 0 contribution(s)</title></rect>
<rect x="668" y="66" width="11" height="11" rx="2" ry="2" fill="#9be9a8"><title>2024-11-27: 1 contribution(s)</title></rect>
<rect x="668" y="80" width="11" height="11" rx="2" ry="2" fill="#ebedf0"><title>2024-11-28: 0 contribution(s)</title></rect>
<rect x="668" y="94" width="11" height="11" rx="2" ry="2" fill="#ebedf0"><title>2024-11-29: 0 contribution(s)</title></rect>
<rect x="668" y="108" width="11" height="11" rx="2" ry="2" fill="#ebedf0"><title>2024-11-30: 0 contribution(s)</title></rect>
<rect x="682" y="24" width="11" height="11" rx="2" ry="2" fill="#ebedf0"><title>2024-12-01: 0 contribution(s)</title></rect>
<rect x="682" y="38" width="11" height="11" rx="2" ry="2" fill="#9be9a8"><title>2024-12-02: 2 contribution(s)</title></rect>
<rect x="682" y="52" width="11" height="11" rx="2" ry="2" fill="#ebedf0"><title>2024-12-03: 0 contribution(s)</title></rect>
<rect x="682" y="66" width="11" height="11" rx="2" ry="2" fill="#9be9a8"><title>2024-12-04: 1 contribution(s)</title></rect>
<rect x="682" y="80" width="11" height="11" rx="2" ry="2" fill="#ebedf0"><title>2024-12-05: 0 contribution(s)</title></rect>
<rect x="682" y="94" width="11" height="11" rx="2" ry="2" fill="#9be9a8"><title>2024-12-06: 1 contribution(s)</title></rect>
<rect x="682" y="108" width="11" height="11" rx="2" ry="2" fill="#ebedf0"><title>2024-12-07: 0 contribution(s)</title></rect>
<rect x="696" y="24" width="11" height="11" rx="2" ry="2" fill="#ebedf0"><title>2024-12-08: 0 contribution(s)</title></rect>
<rect x="696" y="38" width="11" height="11" rx="2" ry="2" fill="#9be9a8"><title>2024-12-09: 1 contribution(s)</title></rect>
<rect x="696" y="52" width="11" height="11" rx="2" ry="2" fill="#9be9a8"><title>2024-12-10: 1 contribution(s)</title></rect>
<rect x="696" y="66" width="11" height="11" rx="2" ry="2" fill="#ebedf0"><title>2024-12-11: 0 contribution(s)</title></rect>
<rect x="696" y="80" width="11" height="11" rx="2" ry="2" fill="#9be9a8"><title>2024-12-12: 1 contribution(s)</title></rect>
<rect x="696" y="94" width="11" height="11" rx="2" ry="2" fill="#9be9a8"><title>2024-12-13: 1 contribution(s)</title></rect>
<rect x="696" y="108" width="11" height="11" rx="2" ry="2" fill="#ebedf0"><title>2024-12-14: 0 contribution(s)</title></rect>
<rect x="710" y="24" width="11" height="11" rx="2" ry="2" fill="#ebedf0"><title>2024-12-15: 0 contribution(s)</title></rect>
<rect x="710" y="38" width="11" height="11" rx="2" ry="2" fill="#9be9a8"><title>2024-12-16: 1 contribution(s)</title></rect>
<rect x="710" y="52" width="11" height="11" rx="2" ry="2" fill="#9be9a8"><title>2024-12-17: 1 contribution(s)</title></rect>
<rect x="710" y="66" width="11" height="11" rx="2" ry="2" fill="#ebedf0"><title>2024-12-18: 0 contribution(s)</title></rect>
<rect x="710" y="80" width="11" height="11" rx="2" ry="2" fill="#ebedf0"><title>2024-12-19: 0 contribution(s)</title></rect>
<rect x="710" y="94" width="11" height="11" rx="2" ry="2" fill="#ebedf0"><title>2024-12-20: 0 contribution(s)</title></rect>
<rect x="710" y="108" width="11" height="11" rx="2" ry="2" fill="#ebedf0"><title>2024-12-21: 0 contribution(s)</title></rect>
<rect x="724" y="24" width="11" height="11" rx="2" ry="2" fill="#ebedf0"><title>2024-12-22: 0 contribution(s)</title></rect>
<rect x="724" y="38" width="11" height="11" rx="2" ry="2" fill="#ebedf0"><title>2024-12-23: 0 contribution(s)</title></rect>
<rect x="724" y="52" width="11" height="11" rx="2" ry="2" fill="#ebedf0"><title>2024-12-24: 0 contribution(s)</title></rect>
<rect x="724" y="66" width="11" height="11" rx="2" ry="2" fill="#ebedf0"><title>2024-12-25: 0 contribution(s)</title></rect>
<rect x="724" y="80" width="11" height="11" rx="2" ry="2" fill="#ebedf0"><title>2024-12-26: 0 contribution(s)</title></rect>
<rect x="724" y="94" width="11" height="11" rx="2" ry="2" fill="#ebedf0"><title>2024-12-27: 0 contribution(s)</title></rect>
<rect x="724" y="108" width="11" height="11" rx="2" ry="2" fill="#ebedf0"><title>2024-12-28: 0 contribution(s)</title></rect>
<rect x="738" y="24" width="11" height="11" rx="2" ry="2" fill="#ebedf0"><title>2024-12-29: 0 contribution(s)</title></rect>
<rect x="738" y="38" width="11" height="11" rx="2" ry="2" fill="#ebedf0"><title>2024-12-30: 0 contribution(s)</title></rect>
<rect x="738" y="52" width="11" height="11" rx="2" ry="2" fill="#ebedf0"><title>2024-12-31: 0 contribution(s)</title></rect>

</svg>