<svg xmlns="http://www.w3.org/2000/svg" xmlns:xlink="http://www.w3.org/1999/xlink" viewBox="0,0,256,256" width="100px" height="100px"><g transform="translate(-39.68,-39.68) scale(1.31,1.31)"><g fill-opacity="0.76863" fill="#efff00" fill-rule="nonzero" stroke="none" stroke-width="1" stroke-linecap="butt" stroke-linejoin="miter" stroke-miterlimit="10" stroke-dasharray="" stroke-dashoffset="0" font-family="none" font-weight="none" font-size="none" text-anchor="none" style="mix-blend-mode: normal"><g transform="scale(4,4)"><path d="M48,8h-32c-4.418,0 -8,3.582 -8,8v32c0,4.418 3.582,8 8,8h32c4.418,0 8,-3.582 8,-8v-32c0,-4.418 -3.582,-8 -8,-8zM24,47h-5v-20h5zM24.029,23.009c-0.647,0.66 -1.491,0.991 -2.529,0.991c-1.026,0 -1.865,-0.341 -2.519,-1.023c-0.654,-0.682 -0.981,-1.519 -0.981,-2.509c0,-1.02 0.327,-1.852 0.981,-2.498c0.654,-0.647 1.493,-0.97 2.519,-0.97c1.038,0 1.882,0.323 2.529,0.969c0.647,0.646 0.971,1.479 0.971,2.499c0,1.034 -0.324,1.881 -0.971,2.541zM47,47h-5v-11.113c0,-3.099 -1.786,-4.887 -4,-4.887c-1.067,0 -2.274,0.648 -2.965,1.469c-0.691,0.821 -1.035,1.862 -1.035,3.125v11.406h-5v-20h5v3.164h0.078c1.472,-2.435 3.613,-3.644 6.426,-3.652c3.996,-0.012 6.496,2.988 6.496,8.242z"></path></g></g></g></svg>